<svg xmlns="http://www.w3.org/2000/svg" viewBox="0 0 714 900" fill="none">
  <path d="M353 0h8v1H353Z M350 1h14v1H350Z M347 2h20v1H347Z M345 3h24v1H345Z M344 4h26v1H344Z M342 5h30v1H342Z M340 6h33v1H340Z M339 7h36v1H339Z M337 8h40v1H337Z M335 9h43v1H335Z M334 10h46v1H334Z M332 11h49v1H332Z M330 12h53v1H330Z M329 13h56v1H329Z M327 14h59v1H327Z M325 15h63v1H325Z M324 16h66v1H324Z M322 17h69v1H322Z M320 18h73v1H320Z M319 19h76v1H319Z M317 20h79v1H317Z M315 21h83v1H315Z M314 22h86v1H314Z M312 23h42v1H312Z M360 23h41v1H360Z M311 24h40v1H311Z M363 24h40v1H363Z M309 25h40v1H309Z M365 25h40v1H365Z M307 26h40v1H307Z M367 26h39v1H367Z M306 27h39v1H306Z M368 27h40v1H368Z M304 28h40v1H304Z M370 28h40v1H370Z M302 29h40v1H302Z M372 29h39v1H372Z M300 30h41v1H300Z M373 30h40v1H373Z M299 31h40v1H299Z M375 31h39v1H375Z M297 32h40v1H297Z M377 32h39v1H377Z M296 33h40v1H296Z M378 33h40v1H378Z M294 34h40v1H294Z M380 34h39v1H380Z M292 35h40v1H292Z M382 35h39v1H382Z M291 36h40v1H291Z M383 36h40v1H383Z M289 37h40v1H289Z M385 37h39v1H385Z M287 38h41v1H287Z M387 38h39v1H387Z M286 39h40v1H286Z M388 39h40v1H388Z M284 40h40v1H284Z M390 40h39v1H390Z M282 41h41v1H282Z M392 41h39v1H392Z M281 42h40v1H281Z M393 42h40v1H393Z M279 43h40v1H279Z M395 43h39v1H395Z M277 44h41v1H277Z M397 44h39v1H397Z M276 45h40v1H276Z M398 45h40v1H398Z M274 46h40v1H274Z M400 46h39v1H400Z M272 47h41v1H272Z M402 47h39v1H402Z M271 48h40v1H271Z M403 48h40v1H403Z M269 49h40v1H269Z M405 49h39v1H405Z M267 50h41v1H267Z M406 50h40v1H406Z M266 51h40v1H266Z M408 51h40v1H408Z M264 52h40v1H264Z M410 52h39v1H410Z M262 53h41v1H262Z M411 53h40v1H411Z M261 54h40v1H261Z M413 54h40v1H413Z M259 55h40v1H259Z M414 55h40v1H414Z M257 56h41v1H257Z M416 56h40v1H416Z M255 57h41v1H255Z M418 57h40v1H418Z M254 58h41v1H254Z M419 58h40v1H419Z M252 59h41v1H252Z M421 59h40v1H421Z M251 60h40v1H251Z M423 60h39v1H423Z M249 61h41v1H249Z M424 61h40v1H424Z M247 62h41v1H247Z M426 62h40v1H426Z M246 63h40v1H246Z M427 63h40v1H427Z M244 64h41v1H244Z M429 64h40v1H429Z M242 65h41v1H242Z M431 65h40v1H431Z M241 66h40v1H241Z M432 66h40v1H432Z M239 67h41v1H239Z M434 67h40v1H434Z M237 68h41v1H237Z M436 68h40v1H436Z M236 69h41v1H236Z M437 69h40v1H437Z M234 70h41v1H234Z M439 70h40v1H439Z M232 71h41v1H232Z M441 71h40v1H441Z M231 72h41v1H231Z M442 72h40v1H442Z M229 73h41v1H229Z M444 73h40v1H444Z M227 74h41v1H227Z M445 74h41v1H445Z M226 75h41v1H226Z M447 75h40v1H447Z M224 76h41v1H224Z M449 76h40v1H449Z M222 77h42v1H222Z M450 77h41v1H450Z M221 78h41v1H221Z M452 78h40v1H452Z M219 79h41v1H219Z M454 79h40v1H454Z M217 80h42v1H217Z M455 80h41v1H455Z M216 81h41v1H216Z M457 81h40v1H457Z M214 82h41v1H214Z M458 82h41v1H458Z M212 83h41v1H212Z M460 83h41v1H460Z M211 84h41v1H211Z M461 84h42v1H461Z M209 85h41v1H209Z M463 85h41v1H463Z M207 86h42v1H207Z M465 86h41v1H465Z M206 87h41v1H206Z M466 87h41v1H466Z M204 88h41v1H204Z M468 88h41v1H468Z M202 89h42v1H202Z M470 89h41v1H470Z M201 90h41v1H201Z M471 90h42v1H471Z M199 91h42v1H199Z M473 91h41v1H473Z M197 92h42v1H197Z M474 92h42v1H474Z M196 93h41v1H196Z M476 93h41v1H476Z M194 94h42v1H194Z M478 94h41v1H478Z M192 95h42v1H192Z M479 95h42v1H479Z M190 96h42v1H190Z M481 96h42v1H481Z M189 97h42v1H189Z M483 97h41v1H483Z M187 98h42v1H187Z M484 98h42v1H484Z M186 99h41v1H186Z M486 99h42v1H486Z M184 100h42v1H184Z M488 100h41v1H488Z M183 101h41v1H183Z M489 101h42v1H489Z M182 102h41v1H182Z M491 102h41v1H491Z M180 103h41v1H180Z M493 103h40v1H493Z M179 104h40v1H179Z M494 104h40v1H494Z M178 105h40v1H178Z M496 105h39v1H496Z M178 106h38v1H178Z M497 106h39v1H497Z M177 107h38v1H177Z M499 107h37v1H499Z M176 108h37v1H176Z M500 108h37v1H500Z M176 109h36v1H176Z M501 109h37v1H501Z M175 110h36v1H175Z M502 110h36v1H502Z M175 111h36v1H175Z M503 111h36v1H503Z M174 112h36v1H174Z M503 112h36v1H503Z M174 113h36v1H174Z M503 113h36v1H503Z M174 114h36v1H174Z M503 114h37v1H503Z M174 115h36v1H174Z M503 115h37v1H503Z M173 116h37v1H173Z M503 116h37v1H503Z M173 117h38v1H173Z M502 117h38v1H502Z M173 118h39v1H173Z M501 118h39v1H501Z M173 119h40v1H173Z M500 119h40v1H500Z M173 120h41v1H173Z M499 120h41v1H499Z M173 121h43v1H173Z M497 121h43v1H497Z M173 122h44v1H173Z M496 122h44v1H496Z M173 123h46v1H173Z M494 123h46v1H494Z M173 124h48v1H173Z M493 124h47v1H493Z M173 125h49v1H173Z M491 125h49v1H491Z M173 126h51v1H173Z M489 126h51v1H489Z M173 127h53v1H173Z M487 127h53v1H487Z M173 128h54v1H173Z M486 128h54v1H486Z M173 129h56v1H173Z M484 129h56v1H484Z M173 130h58v1H173Z M483 130h57v1H483Z M173 131h59v1H173Z M481 131h59v1H481Z M173 132h61v1H173Z M479 132h61v1H479Z M173 133h63v1H173Z M478 133h62v1H478Z M173 134h64v1H173Z M476 134h64v1H476Z M173 135h66v1H173Z M474 135h66v1H474Z M173 136h24v1H173Z M202 136h39v1H202Z M473 136h67v1H473Z M173 137h23v1H173Z M205 137h37v1H205Z M471 137h40v1H471Z M516 137h24v1H516Z M173 138h22v1H173Z M206 138h38v1H206Z M469 138h40v1H469Z M517 138h23v1H517Z M173 139h22v1H173Z M209 139h37v1H209Z M468 139h39v1H468Z M518 139h22v1H518Z M173 140h22v1H173Z M210 140h37v1H210Z M466 140h39v1H466Z M518 140h22v1H518Z M173 141h21v1H173Z M212 141h37v1H212Z M464 141h39v1H464Z M518 141h22v1H518Z M173 142h21v1H173Z M213 142h38v1H213Z M463 142h39v1H463Z M519 142h21v1H519Z M173 143h21v1H173Z M215 143h37v1H215Z M461 143h39v1H461Z M519 143h21v1H519Z M173 144h21v1H173Z M217 144h37v1H217Z M460 144h39v1H460Z M519 144h21v1H519Z M173 145h21v1H173Z M218 145h38v1H218Z M458 145h39v1H458Z M519 145h21v1H519Z M173 146h21v1H173Z M220 146h37v1H220Z M456 146h39v1H456Z M519 146h21v1H519Z M173 147h21v1H173Z M222 147h37v1H222Z M455 147h39v1H455Z M519 147h21v1H519Z M173 148h21v1H173Z M223 148h37v1H223Z M453 148h39v1H453Z M519 148h21v1H519Z M173 149h21v1H173Z M225 149h37v1H225Z M451 149h39v1H451Z M519 149h21v1H519Z M173 150h21v1H173Z M226 150h38v1H226Z M450 150h38v1H450Z M519 150h21v1H519Z M173 151h21v1H173Z M228 151h37v1H228Z M448 151h39v1H448Z M519 151h21v1H519Z M173 152h21v1H173Z M230 152h37v1H230Z M446 152h39v1H446Z M519 152h21v1H519Z M173 153h21v1H173Z M231 153h38v1H231Z M445 153h38v1H445Z M519 153h21v1H519Z M173 154h21v1H173Z M233 154h37v1H233Z M443 154h39v1H443Z M519 154h21v1H519Z M173 155h21v1H173Z M235 155h37v1H235Z M441 155h39v1H441Z M519 155h21v1H519Z M173 156h21v1H173Z M237 156h37v1H237Z M440 156h38v1H440Z M519 156h21v1H519Z M173 157h21v1H173Z M238 157h38v1H238Z M438 157h39v1H438Z M519 157h21v1H519Z M173 158h21v1H173Z M240 158h37v1H240Z M436 158h39v1H436Z M519 158h21v1H519Z M173 159h21v1H173Z M241 159h38v1H241Z M435 159h38v1H435Z M519 159h21v1H519Z M173 160h21v1H173Z M243 160h38v1H243Z M433 160h39v1H433Z M519 160h21v1H519Z M173 161h21v1H173Z M245 161h37v1H245Z M431 161h39v1H431Z M519 161h21v1H519Z M173 162h21v1H173Z M246 162h38v1H246Z M430 162h39v1H430Z M519 162h21v1H519Z M173 163h21v1H173Z M248 163h38v1H248Z M428 163h39v1H428Z M519 163h21v1H519Z M173 164h21v1H173Z M250 164h37v1H250Z M427 164h38v1H427Z M519 164h21v1H519Z M173 165h21v1H173Z M251 165h38v1H251Z M425 165h39v1H425Z M519 165h21v1H519Z M173 166h21v1H173Z M253 166h37v1H253Z M423 166h39v1H423Z M519 166h21v1H519Z M173 167h21v1H173Z M254 167h38v1H254Z M422 167h38v1H422Z M519 167h21v1H519Z M173 168h21v1H173Z M256 168h38v1H256Z M420 168h39v1H420Z M519 168h21v1H519Z M173 169h21v1H173Z M258 169h37v1H258Z M418 169h39v1H418Z M519 169h21v1H519Z M173 170h21v1H173Z M260 170h37v1H260Z M417 170h38v1H417Z M519 170h21v1H519Z M173 171h21v1H173Z M261 171h38v1H261Z M415 171h39v1H415Z M519 171h21v1H519Z M173 172h21v1H173Z M263 172h38v1H263Z M413 172h39v1H413Z M519 172h21v1H519Z M173 173h21v1H173Z M264 173h38v1H264Z M412 173h38v1H412Z M519 173h21v1H519Z M173 174h21v1H173Z M266 174h38v1H266Z M410 174h38v1H410Z M519 174h21v1H519Z M173 175h21v1H173Z M268 175h37v1H268Z M408 175h39v1H408Z M519 175h21v1H519Z M173 176h21v1H173Z M269 176h38v1H269Z M407 176h38v1H407Z M519 176h21v1H519Z M173 177h21v1H173Z M271 177h38v1H271Z M405 177h39v1H405Z M519 177h21v1H519Z M173 178h21v1H173Z M273 178h37v1H273Z M404 178h38v1H404Z M519 178h21v1H519Z M173 179h21v1H173Z M274 179h38v1H274Z M402 179h38v1H402Z M519 179h21v1H519Z M173 180h21v1H173Z M276 180h38v1H276Z M400 180h39v1H400Z M519 180h21v1H519Z M173 181h21v1H173Z M277 181h38v1H277Z M398 181h39v1H398Z M519 181h21v1H519Z M173 182h21v1H173Z M279 182h38v1H279Z M397 182h38v1H397Z M519 182h21v1H519Z M173 183h21v1H173Z M281 183h38v1H281Z M395 183h39v1H395Z M519 183h21v1H519Z M173 184h21v1H173Z M282 184h38v1H282Z M394 184h38v1H394Z M519 184h21v1H519Z M173 185h21v1H173Z M284 185h38v1H284Z M392 185h38v1H392Z M519 185h21v1H519Z M173 186h21v1H173Z M286 186h38v1H286Z M390 186h39v1H390Z M519 186h21v1H519Z M173 187h21v1H173Z M287 187h38v1H287Z M388 187h39v1H388Z M519 187h21v1H519Z M173 188h21v1H173Z M289 188h38v1H289Z M387 188h38v1H387Z M519 188h21v1H519Z M173 189h21v1H173Z M290 189h39v1H290Z M385 189h39v1H385Z M519 189h21v1H519Z M173 190h21v1H173Z M292 190h38v1H292Z M383 190h39v1H383Z M519 190h21v1H519Z M173 191h21v1H173Z M294 191h38v1H294Z M382 191h38v1H382Z M519 191h21v1H519Z M173 192h21v1H173Z M295 192h39v1H295Z M380 192h39v1H380Z M519 192h21v1H519Z M173 193h21v1H173Z M297 193h38v1H297Z M379 193h38v1H379Z M519 193h21v1H519Z M173 194h21v1H173Z M299 194h38v1H299Z M377 194h39v1H377Z M519 194h21v1H519Z M173 195h21v1H173Z M300 195h39v1H300Z M375 195h39v1H375Z M519 195h21v1H519Z M173 196h21v1H173Z M302 196h38v1H302Z M374 196h38v1H374Z M519 196h21v1H519Z M173 197h21v1H173Z M304 197h38v1H304Z M372 197h39v1H372Z M519 197h21v1H519Z M173 198h21v1H173Z M305 198h38v1H305Z M370 198h39v1H370Z M519 198h21v1H519Z M173 199h21v1H173Z M307 199h38v1H307Z M369 199h38v1H369Z M519 199h21v1H519Z M173 200h21v1H173Z M308 200h39v1H308Z M366 200h40v1H366Z M519 200h21v1H519Z M173 201h21v1H173Z M310 201h40v1H310Z M364 201h40v1H364Z M519 201h21v1H519Z M173 202h21v1H173Z M312 202h42v1H312Z M361 202h41v1H361Z M519 202h21v1H519Z M173 203h21v1H173Z M313 203h88v1H313Z M519 203h21v1H519Z M173 204h21v1H173Z M315 204h84v1H315Z M519 204h21v1H519Z M173 205h21v1H173Z M317 205h80v1H317Z M519 205h21v1H519Z M173 206h21v1H173Z M318 206h78v1H318Z M519 206h21v1H519Z M173 207h21v1H173Z M320 207h74v1H320Z M519 207h21v1H519Z M173 208h21v1H173Z M321 208h71v1H321Z M519 208h21v1H519Z M173 209h21v1H173Z M323 209h68v1H323Z M519 209h21v1H519Z M173 210h21v1H173Z M324 210h65v1H324Z M519 210h21v1H519Z M173 211h21v1H173Z M326 211h62v1H326Z M519 211h21v1H519Z M173 212h21v1H173Z M328 212h58v1H328Z M519 212h21v1H519Z M173 213h21v1H173Z M329 213h55v1H329Z M519 213h21v1H519Z M173 214h21v1H173Z M331 214h52v1H331Z M519 214h21v1H519Z M173 215h21v1H173Z M333 215h48v1H333Z M519 215h21v1H519Z M173 216h21v1H173Z M334 216h45v1H334Z M519 216h21v1H519Z M173 217h21v1H173Z M336 217h42v1H336Z M519 217h21v1H519Z M173 218h21v1H173Z M337 218h40v1H337Z M519 218h21v1H519Z M173 219h21v1H173Z M338 219h38v1H338Z M519 219h21v1H519Z M173 220h21v1H173Z M340 220h35v1H340Z M519 220h21v1H519Z M173 221h21v1H173Z M340 221h34v1H340Z M519 221h21v1H519Z M173 222h21v1H173Z M341 222h32v1H341Z M519 222h21v1H519Z M173 223h21v1H173Z M342 223h30v1H342Z M519 223h21v1H519Z M173 224h21v1H173Z M343 224h29v1H343Z M519 224h21v1H519Z M173 225h21v1H173Z M343 225h28v1H343Z M519 225h21v1H519Z M173 226h21v1H173Z M344 226h26v1H344Z M519 226h21v1H519Z M173 227h21v1H173Z M344 227h26v1H344Z M519 227h21v1H519Z M173 228h21v1H173Z M345 228h24v1H345Z M519 228h21v1H519Z M173 229h21v1H173Z M345 229h24v1H345Z M519 229h21v1H519Z M173 230h21v1H173Z M345 230h24v1H345Z M519 230h21v1H519Z M173 231h21v1H173Z M346 231h23v1H346Z M519 231h21v1H519Z M173 232h21v1H173Z M346 232h22v1H346Z M519 232h21v1H519Z M173 233h21v1H173Z M346 233h22v1H346Z M519 233h21v1H519Z M173 234h21v1H173Z M346 234h22v1H346Z M519 234h21v1H519Z M173 235h21v1H173Z M346 235h22v1H346Z M519 235h21v1H519Z M173 236h21v1H173Z M346 236h22v1H346Z M519 236h21v1H519Z M173 237h21v1H173Z M346 237h22v1H346Z M519 237h21v1H519Z M173 238h21v1H173Z M346 238h22v1H346Z M519 238h21v1H519Z M173 239h21v1H173Z M346 239h22v1H346Z M519 239h21v1H519Z M173 240h21v1H173Z M346 240h22v1H346Z M519 240h21v1H519Z M173 241h21v1H173Z M346 241h22v1H346Z M519 241h21v1H519Z M173 242h21v1H173Z M346 242h22v1H346Z M519 242h21v1H519Z M173 243h21v1H173Z M346 243h22v1H346Z M519 243h21v1H519Z M173 244h21v1H173Z M346 244h22v1H346Z M519 244h21v1H519Z M174 245h20v1H174Z M346 245h22v1H346Z M519 245h21v1H519Z M174 246h20v1H174Z M346 246h22v1H346Z M519 246h21v1H519Z M174 247h20v1H174Z M346 247h22v1H346Z M519 247h21v1H519Z M174 248h20v1H174Z M346 248h22v1H346Z M519 248h21v1H519Z M174 249h20v1H174Z M346 249h22v1H346Z M519 249h22v1H519Z M174 250h20v1H174Z M346 250h22v1H346Z M519 250h22v1H519Z M174 251h20v1H174Z M346 251h22v1H346Z M519 251h22v1H519Z M174 252h20v1H174Z M346 252h22v1H346Z M518 252h23v1H518Z M174 253h20v1H174Z M346 253h22v1H346Z M518 253h24v1H518Z M174 254h20v1H174Z M346 254h22v1H346Z M518 254h24v1H518Z M174 255h20v1H174Z M346 255h22v1H346Z M517 255h26v1H517Z M174 256h20v1H174Z M346 256h22v1H346Z M517 256h27v1H517Z M174 257h20v1H174Z M346 257h22v1H346Z M516 257h28v1H516Z M174 258h20v1H174Z M346 258h22v1H346Z M515 258h30v1H515Z M173 259h21v1H173Z M346 259h22v1H346Z M515 259h31v1H515Z M173 260h21v1H173Z M346 260h22v1H346Z M514 260h33v1H514Z M173 261h21v1H173Z M346 261h22v1H346Z M513 261h35v1H513Z M173 262h21v1H173Z M346 262h22v1H346Z M511 262h38v1H511Z M173 263h22v1H173Z M346 263h22v1H346Z M510 263h40v1H510Z M173 264h22v1H173Z M346 264h22v1H346Z M508 264h43v1H508Z M172 265h23v1H172Z M347 265h21v1H347Z M507 265h46v1H507Z M172 266h23v1H172Z M347 266h21v1H347Z M505 266h50v1H505Z M172 267h24v1H172Z M347 267h21v1H347Z M504 267h52v1H504Z M171 268h25v1H171Z M347 268h21v1H347Z M502 268h56v1H502Z M171 269h26v1H171Z M347 269h21v1H347Z M500 269h60v1H500Z M170 270h27v1H170Z M347 270h21v1H347Z M499 270h62v1H499Z M170 271h28v1H170Z M347 271h21v1H347Z M497 271h66v1H497Z M169 272h30v1H169Z M347 272h21v1H347Z M495 272h70v1H495Z M168 273h32v1H168Z M347 273h21v1H347Z M493 273h73v1H493Z M168 274h33v1H168Z M347 274h21v1H347Z M492 274h76v1H492Z M167 275h35v1H167Z M347 275h21v1H347Z M490 275h80v1H490Z M166 276h37v1H166Z M347 276h21v1H347Z M489 276h82v1H489Z M165 277h40v1H165Z M347 277h21v1H347Z M487 277h86v1H487Z M163 278h43v1H163Z M347 278h21v1H347Z M485 278h90v1H485Z M162 279h46v1H162Z M347 279h21v1H347Z M484 279h92v1H484Z M160 280h50v1H160Z M347 280h21v1H347Z M482 280h96v1H482Z M159 281h52v1H159Z M347 281h21v1H347Z M480 281h100v1H480Z M157 282h56v1H157Z M347 282h21v1H347Z M479 282h102v1H479Z M155 283h60v1H155Z M347 283h21v1H347Z M477 283h106v1H477Z M153 284h63v1H153Z M347 284h21v1H347Z M475 284h110v1H475Z M152 285h66v1H152Z M347 285h21v1H347Z M474 285h112v1H474Z M150 286h69v1H150Z M347 286h21v1H347Z M472 286h116v1H472Z M149 287h72v1H149Z M347 287h21v1H347Z M470 287h41v1H470Z M515 287h29v1H515Z M549 287h41v1H549Z M147 288h76v1H147Z M347 288h21v1H347Z M469 288h39v1H469Z M517 288h25v1H517Z M551 288h40v1H551Z M145 289h79v1H145Z M347 289h21v1H347Z M467 289h39v1H467Z M517 289h25v1H517Z M554 289h39v1H554Z M144 290h82v1H144Z M347 290h21v1H347Z M465 290h39v1H465Z M518 290h23v1H518Z M555 290h40v1H555Z M142 291h86v1H142Z M347 291h21v1H347Z M463 291h40v1H463Z M518 291h23v1H518Z M557 291h39v1H557Z M140 292h89v1H140Z M347 292h21v1H347Z M462 292h39v1H462Z M518 292h23v1H518Z M559 292h39v1H559Z M138 293h93v1H138Z M347 293h21v1H347Z M460 293h40v1H460Z M519 293h22v1H519Z M560 293h40v1H560Z M137 294h96v1H137Z M347 294h21v1H347Z M459 294h39v1H459Z M519 294h21v1H519Z M562 294h40v1H562Z M135 295h99v1H135Z M347 295h21v1H347Z M457 295h39v1H457Z M519 295h21v1H519Z M564 295h39v1H564Z M133 296h103v1H133Z M347 296h21v1H347Z M455 296h40v1H455Z M519 296h21v1H519Z M565 296h40v1H565Z M132 297h105v1H132Z M347 297h21v1H347Z M454 297h39v1H454Z M519 297h21v1H519Z M567 297h39v1H567Z M130 298h109v1H130Z M347 298h21v1H347Z M452 298h39v1H452Z M519 298h21v1H519Z M569 298h39v1H569Z M128 299h113v1H128Z M347 299h21v1H347Z M450 299h40v1H450Z M519 299h21v1H519Z M570 299h40v1H570Z M127 300h115v1H127Z M347 300h21v1H347Z M449 300h39v1H449Z M519 300h21v1H519Z M572 300h40v1H572Z M125 301h73v1H125Z M201 301h43v1H201Z M347 301h21v1H347Z M447 301h40v1H447Z M519 301h21v1H519Z M574 301h39v1H574Z M123 302h41v1H123Z M170 302h28v1H170Z M203 302h42v1H203Z M347 302h21v1H347Z M445 302h40v1H445Z M519 302h21v1H519Z M575 302h40v1H575Z M122 303h40v1H122Z M171 303h26v1H171Z M205 303h42v1H205Z M347 303h21v1H347Z M444 303h39v1H444Z M519 303h21v1H519Z M577 303h40v1H577Z M120 304h39v1H120Z M172 304h25v1H172Z M207 304h42v1H207Z M347 304h21v1H347Z M442 304h40v1H442Z M519 304h21v1H519Z M579 304h39v1H579Z M118 305h40v1H118Z M172 305h24v1H172Z M209 305h41v1H209Z M347 305h21v1H347Z M440 305h40v1H440Z M519 305h21v1H519Z M580 305h40v1H580Z M117 306h39v1H117Z M172 306h24v1H172Z M210 306h42v1H210Z M347 306h21v1H347Z M439 306h40v1H439Z M519 306h21v1H519Z M582 306h39v1H582Z M115 307h39v1H115Z M172 307h24v1H172Z M212 307h42v1H212Z M347 307h21v1H347Z M437 307h40v1H437Z M519 307h21v1H519Z M583 307h40v1H583Z M113 308h40v1H113Z M173 308h22v1H173Z M214 308h41v1H214Z M347 308h21v1H347Z M435 308h40v1H435Z M519 308h21v1H519Z M585 308h40v1H585Z M112 309h39v1H112Z M173 309h22v1H173Z M215 309h42v1H215Z M347 309h21v1H347Z M434 309h40v1H434Z M519 309h21v1H519Z M587 309h39v1H587Z M110 310h40v1H110Z M173 310h22v1H173Z M217 310h42v1H217Z M347 310h21v1H347Z M432 310h40v1H432Z M519 310h21v1H519Z M588 310h40v1H588Z M108 311h40v1H108Z M173 311h21v1H173Z M218 311h42v1H218Z M347 311h21v1H347Z M430 311h40v1H430Z M519 311h21v1H519Z M590 311h40v1H590Z M107 312h39v1H107Z M173 312h21v1H173Z M220 312h42v1H220Z M347 312h21v1H347Z M429 312h40v1H429Z M519 312h21v1H519Z M592 312h40v1H592Z M105 313h40v1H105Z M173 313h21v1H173Z M222 313h41v1H222Z M347 313h21v1H347Z M427 313h40v1H427Z M519 313h21v1H519Z M593 313h40v1H593Z M103 314h40v1H103Z M173 314h21v1H173Z M224 314h41v1H224Z M347 314h21v1H347Z M425 314h40v1H425Z M519 314h21v1H519Z M595 314h40v1H595Z M102 315h39v1H102Z M173 315h21v1H173Z M225 315h42v1H225Z M347 315h21v1H347Z M424 315h40v1H424Z M519 315h21v1H519Z M596 315h40v1H596Z M100 316h40v1H100Z M173 316h21v1H173Z M227 316h41v1H227Z M347 316h21v1H347Z M422 316h40v1H422Z M519 316h21v1H519Z M598 316h40v1H598Z M98 317h40v1H98Z M173 317h21v1H173Z M229 317h41v1H229Z M347 317h21v1H347Z M420 317h40v1H420Z M519 317h21v1H519Z M600 317h40v1H600Z M97 318h39v1H97Z M173 318h21v1H173Z M230 318h42v1H230Z M347 318h21v1H347Z M419 318h40v1H419Z M519 318h21v1H519Z M602 318h39v1H602Z M95 319h40v1H95Z M173 319h21v1H173Z M232 319h41v1H232Z M347 319h21v1H347Z M417 319h40v1H417Z M519 319h21v1H519Z M603 319h40v1H603Z M93 320h40v1H93Z M173 320h21v1H173Z M233 320h42v1H233Z M347 320h21v1H347Z M415 320h41v1H415Z M519 320h21v1H519Z M605 320h40v1H605Z M92 321h40v1H92Z M173 321h21v1H173Z M235 321h42v1H235Z M347 321h21v1H347Z M414 321h40v1H414Z M519 321h21v1H519Z M606 321h40v1H606Z M90 322h40v1H90Z M173 322h21v1H173Z M236 322h42v1H236Z M347 322h21v1H347Z M412 322h40v1H412Z M519 322h21v1H519Z M608 322h40v1H608Z M88 323h40v1H88Z M173 323h21v1H173Z M238 323h42v1H238Z M347 323h21v1H347Z M410 323h41v1H410Z M519 323h21v1H519Z M610 323h40v1H610Z M87 324h40v1H87Z M173 324h21v1H173Z M240 324h41v1H240Z M347 324h21v1H347Z M409 324h40v1H409Z M519 324h21v1H519Z M611 324h40v1H611Z M85 325h40v1H85Z M173 325h21v1H173Z M242 325h41v1H242Z M347 325h21v1H347Z M407 325h40v1H407Z M519 325h21v1H519Z M613 325h40v1H613Z M83 326h40v1H83Z M173 326h21v1H173Z M243 326h42v1H243Z M347 326h21v1H347Z M405 326h41v1H405Z M519 326h21v1H519Z M614 326h41v1H614Z M82 327h40v1H82Z M173 327h21v1H173Z M245 327h41v1H245Z M347 327h21v1H347Z M404 327h40v1H404Z M519 327h21v1H519Z M616 327h40v1H616Z M80 328h40v1H80Z M173 328h21v1H173Z M246 328h42v1H246Z M347 328h21v1H347Z M402 328h41v1H402Z M519 328h21v1H519Z M618 328h40v1H618Z M78 329h40v1H78Z M173 329h21v1H173Z M248 329h42v1H248Z M347 329h21v1H347Z M400 329h41v1H400Z M519 329h21v1H519Z M619 329h41v1H619Z M77 330h40v1H77Z M173 330h21v1H173Z M250 330h41v1H250Z M347 330h21v1H347Z M399 330h41v1H399Z M519 330h21v1H519Z M621 330h40v1H621Z M75 331h40v1H75Z M173 331h21v1H173Z M251 331h42v1H251Z M347 331h21v1H347Z M397 331h41v1H397Z M519 331h21v1H519Z M623 331h40v1H623Z M73 332h40v1H73Z M173 332h21v1H173Z M253 332h41v1H253Z M347 332h21v1H347Z M395 332h41v1H395Z M519 332h21v1H519Z M624 332h41v1H624Z M72 333h40v1H72Z M173 333h21v1H173Z M255 333h41v1H255Z M347 333h21v1H347Z M394 333h40v1H394Z M519 333h21v1H519Z M626 333h40v1H626Z M70 334h40v1H70Z M173 334h21v1H173Z M256 334h42v1H256Z M347 334h21v1H347Z M392 334h41v1H392Z M519 334h21v1H519Z M628 334h40v1H628Z M69 335h40v1H69Z M173 335h21v1H173Z M258 335h41v1H258Z M347 335h21v1H347Z M390 335h41v1H390Z M519 335h21v1H519Z M629 335h41v1H629Z M67 336h40v1H67Z M173 336h21v1H173Z M259 336h42v1H259Z M347 336h21v1H347Z M389 336h41v1H389Z M519 336h21v1H519Z M631 336h40v1H631Z M65 337h40v1H65Z M173 337h21v1H173Z M261 337h42v1H261Z M347 337h21v1H347Z M387 337h41v1H387Z M519 337h21v1H519Z M633 337h40v1H633Z M64 338h40v1H64Z M173 338h21v1H173Z M263 338h41v1H263Z M347 338h21v1H347Z M385 338h41v1H385Z M519 338h21v1H519Z M634 338h41v1H634Z M62 339h40v1H62Z M173 339h21v1H173Z M264 339h42v1H264Z M347 339h21v1H347Z M383 339h42v1H383Z M519 339h21v1H519Z M636 339h40v1H636Z M60 340h40v1H60Z M173 340h21v1H173Z M266 340h42v1H266Z M347 340h22v1H347Z M382 340h41v1H382Z M519 340h21v1H519Z M637 340h41v1H637Z M59 341h40v1H59Z M173 341h21v1H173Z M268 341h42v1H268Z M347 341h22v1H347Z M380 341h41v1H380Z M519 341h21v1H519Z M639 341h41v1H639Z M57 342h40v1H57Z M173 342h21v1H173Z M269 342h42v1H269Z M347 342h23v1H347Z M378 342h42v1H378Z M519 342h21v1H519Z M641 342h40v1H641Z M55 343h40v1H55Z M173 343h21v1H173Z M271 343h41v1H271Z M347 343h24v1H347Z M376 343h42v1H376Z M519 343h21v1H519Z M642 343h41v1H642Z M54 344h40v1H54Z M173 344h21v1H173Z M273 344h41v1H273Z M347 344h70v1H347Z M519 344h21v1H519Z M644 344h41v1H644Z M52 345h40v1H52Z M173 345h21v1H173Z M274 345h42v1H274Z M347 345h68v1H347Z M519 345h21v1H519Z M646 345h40v1H646Z M51 346h40v1H51Z M173 346h21v1H173Z M276 346h41v1H276Z M347 346h66v1H347Z M519 346h21v1H519Z M647 346h41v1H647Z M49 347h40v1H49Z M173 347h21v1H173Z M278 347h41v1H278Z M347 347h65v1H347Z M519 347h21v1H519Z M649 347h41v1H649Z M47 348h41v1H47Z M173 348h21v1H173Z M279 348h42v1H279Z M347 348h63v1H347Z M519 348h21v1H519Z M651 348h40v1H651Z M46 349h40v1H46Z M173 349h21v1H173Z M281 349h41v1H281Z M347 349h62v1H347Z M519 349h21v1H519Z M652 349h41v1H652Z M44 350h40v1H44Z M173 350h21v1H173Z M282 350h42v1H282Z M347 350h60v1H347Z M519 350h21v1H519Z M654 350h41v1H654Z M42 351h41v1H42Z M173 351h21v1H173Z M284 351h42v1H284Z M347 351h58v1H347Z M519 351h21v1H519Z M656 351h40v1H656Z M41 352h40v1H41Z M173 352h21v1H173Z M286 352h41v1H286Z M346 352h58v1H346Z M519 352h21v1H519Z M657 352h41v1H657Z M39 353h40v1H39Z M173 353h21v1H173Z M287 353h42v1H287Z M346 353h56v1H346Z M519 353h21v1H519Z M659 353h41v1H659Z M37 354h41v1H37Z M173 354h21v1H173Z M289 354h42v1H289Z M346 354h54v1H346Z M519 354h21v1H519Z M660 354h42v1H660Z M36 355h40v1H36Z M173 355h21v1H173Z M291 355h41v1H291Z M346 355h53v1H346Z M519 355h21v1H519Z M662 355h41v1H662Z M34 356h40v1H34Z M173 356h21v1H173Z M292 356h42v1H292Z M345 356h52v1H345Z M519 356h21v1H519Z M664 356h41v1H664Z M32 357h41v1H32Z M173 357h21v1H173Z M294 357h42v1H294Z M345 357h50v1H345Z M519 357h21v1H519Z M666 357h40v1H666Z M31 358h40v1H31Z M173 358h21v1H173Z M296 358h42v1H296Z M343 358h51v1H343Z M519 358h21v1H519Z M667 358h40v1H667Z M29 359h40v1H29Z M173 359h21v1H173Z M297 359h95v1H297Z M519 359h21v1H519Z M669 359h39v1H669Z M28 360h40v1H28Z M173 360h21v1H173Z M299 360h92v1H299Z M519 360h21v1H519Z M670 360h39v1H670Z M26 361h40v1H26Z M173 361h21v1H173Z M300 361h89v1H300Z M519 361h21v1H519Z M672 361h38v1H672Z M24 362h41v1H24Z M173 362h21v1H173Z M302 362h86v1H302Z M519 362h21v1H519Z M673 362h37v1H673Z M23 363h40v1H23Z M173 363h21v1H173Z M304 363h83v1H304Z M519 363h21v1H519Z M674 363h37v1H674Z M21 364h40v1H21Z M173 364h21v1H173Z M305 364h80v1H305Z M519 364h21v1H519Z M675 364h36v1H675Z M20 365h40v1H20Z M173 365h21v1H173Z M307 365h78v1H307Z M519 365h21v1H519Z M676 365h36v1H676Z M18 366h40v1H18Z M173 366h21v1H173Z M308 366h76v1H308Z M519 366h21v1H519Z M677 366h35v1H677Z M16 367h40v1H16Z M173 367h21v1H173Z M310 367h74v1H310Z M519 367h21v1H519Z M677 367h36v1H677Z M14 368h41v1H14Z M173 368h21v1H173Z M312 368h71v1H312Z M519 368h21v1H519Z M677 368h36v1H677Z M13 369h40v1H13Z M173 369h21v1H173Z M313 369h71v1H313Z M519 369h21v1H519Z M677 369h36v1H677Z M11 370h40v1H11Z M173 370h21v1H173Z M315 370h69v1H315Z M519 370h21v1H519Z M676 370h37v1H676Z M10 371h40v1H10Z M173 371h21v1H173Z M317 371h68v1H317Z M519 371h21v1H519Z M676 371h38v1H676Z M9 372h39v1H9Z M173 372h21v1H173Z M318 372h68v1H318Z M519 372h21v1H519Z M675 372h39v1H675Z M8 373h39v1H8Z M173 373h21v1H173Z M320 373h67v1H320Z M519 373h21v1H519Z M674 373h40v1H674Z M7 374h38v1H7Z M173 374h21v1H173Z M322 374h66v1H322Z M519 374h21v1H519Z M673 374h41v1H673Z M6 375h37v1H6Z M173 375h21v1H173Z M323 375h66v1H323Z M519 375h21v1H519Z M672 375h42v1H672Z M5 376h37v1H5Z M173 376h21v1H173Z M325 376h66v1H325Z M519 376h21v1H519Z M670 376h44v1H670Z M4 377h36v1H4Z M173 377h21v1H173Z M326 377h67v1H326Z M519 377h21v1H519Z M669 377h45v1H669Z M3 378h36v1H3Z M173 378h21v1H173Z M327 378h67v1H327Z M519 378h21v1H519Z M667 378h47v1H667Z M3 379h35v1H3Z M173 379h21v1H173Z M328 379h68v1H328Z M519 379h21v1H519Z M665 379h49v1H665Z M2 380h35v1H2Z M173 380h21v1H173Z M329 380h68v1H329Z M519 380h21v1H519Z M663 380h51v1H663Z M2 381h35v1H2Z M173 381h21v1H173Z M330 381h69v1H330Z M519 381h21v1H519Z M662 381h52v1H662Z M1 382h35v1H1Z M173 382h21v1H173Z M330 382h71v1H330Z M519 382h21v1H519Z M660 382h54v1H660Z M1 383h35v1H1Z M173 383h21v1H173Z M330 383h73v1H330Z M519 383h21v1H519Z M659 383h55v1H659Z M1 384h35v1H1Z M173 384h21v1H173Z M330 384h74v1H330Z M519 384h21v1H519Z M657 384h57v1H657Z M1 385h36v1H1Z M173 385h21v1H173Z M330 385h76v1H330Z M519 385h21v1H519Z M655 385h59v1H655Z M0 386h38v1H0Z M173 386h21v1H173Z M329 386h78v1H329Z M519 386h21v1H519Z M654 386h60v1H654Z M0 387h38v1H0Z M173 387h21v1H173Z M328 387h81v1H328Z M519 387h21v1H519Z M652 387h62v1H652Z M0 388h40v1H0Z M173 388h21v1H173Z M327 388h84v1H327Z M519 388h21v1H519Z M650 388h64v1H650Z M0 389h41v1H0Z M173 389h21v1H173Z M326 389h86v1H326Z M519 389h21v1H519Z M649 389h65v1H649Z M0 390h42v1H0Z M173 390h21v1H173Z M325 390h89v1H325Z M519 390h21v1H519Z M647 390h67v1H647Z M0 391h44v1H0Z M173 391h21v1H173Z M323 391h48v1H323Z M374 391h42v1H374Z M519 391h21v1H519Z M645 391h42v1H645Z M690 391h24v1H690Z M0 392h45v1H0Z M173 392h21v1H173Z M321 392h49v1H321Z M377 392h40v1H377Z M519 392h21v1H519Z M644 392h40v1H644Z M691 392h23v1H691Z M0 393h47v1H0Z M173 393h21v1H173Z M320 393h49v1H320Z M379 393h40v1H379Z M519 393h21v1H519Z M642 393h39v1H642Z M692 393h22v1H692Z M0 394h48v1H0Z M173 394h21v1H173Z M318 394h51v1H318Z M381 394h40v1H381Z M519 394h21v1H519Z M641 394h38v1H641Z M692 394h22v1H692Z M0 395h50v1H0Z M173 395h21v1H173Z M316 395h53v1H316Z M383 395h39v1H383Z M519 395h21v1H519Z M639 395h39v1H639Z M693 395h21v1H693Z M0 396h52v1H0Z M173 396h21v1H173Z M315 396h53v1H315Z M385 396h39v1H385Z M519 396h21v1H519Z M637 396h39v1H637Z M693 396h21v1H693Z M0 397h54v1H0Z M173 397h21v1H173Z M313 397h55v1H313Z M386 397h40v1H386Z M519 397h21v1H519Z M636 397h38v1H636Z M693 397h21v1H693Z M0 398h55v1H0Z M173 398h21v1H173Z M312 398h56v1H312Z M388 398h39v1H388Z M519 398h21v1H519Z M634 398h39v1H634Z M693 398h21v1H693Z M0 399h57v1H0Z M173 399h21v1H173Z M310 399h58v1H310Z M389 399h40v1H389Z M519 399h21v1H519Z M632 399h39v1H632Z M693 399h21v1H693Z M0 400h59v1H0Z M173 400h21v1H173Z M308 400h60v1H308Z M391 400h39v1H391Z M519 400h21v1H519Z M631 400h38v1H631Z M693 400h21v1H693Z M0 401h60v1H0Z M173 401h21v1H173Z M307 401h61v1H307Z M393 401h39v1H393Z M519 401h21v1H519Z M629 401h39v1H629Z M693 401h21v1H693Z M0 402h62v1H0Z M173 402h21v1H173Z M305 402h63v1H305Z M394 402h40v1H394Z M519 402h21v1H519Z M628 402h38v1H628Z M693 402h21v1H693Z M0 403h63v1H0Z M173 403h21v1H173Z M303 403h65v1H303Z M396 403h40v1H396Z M519 403h21v1H519Z M626 403h38v1H626Z M693 403h21v1H693Z M0 404h65v1H0Z M173 404h21v1H173Z M302 404h66v1H302Z M398 404h39v1H398Z M519 404h21v1H519Z M625 404h38v1H625Z M693 404h21v1H693Z M0 405h67v1H0Z M173 405h21v1H173Z M300 405h68v1H300Z M399 405h40v1H399Z M519 405h21v1H519Z M623 405h38v1H623Z M693 405h21v1H693Z M0 406h24v1H0Z M28 406h40v1H28Z M173 406h21v1H173Z M299 406h41v1H299Z M342 406h26v1H342Z M401 406h40v1H401Z M519 406h21v1H519Z M621 406h38v1H621Z M693 406h21v1H693Z M0 407h23v1H0Z M30 407h40v1H30Z M173 407h21v1H173Z M297 407h40v1H297Z M344 407h24v1H344Z M403 407h39v1H403Z M519 407h21v1H519Z M619 407h39v1H619Z M693 407h21v1H693Z M0 408h22v1H0Z M32 408h40v1H32Z M173 408h21v1H173Z M295 408h40v1H295Z M344 408h24v1H344Z M405 408h39v1H405Z M519 408h21v1H519Z M618 408h38v1H618Z M693 408h21v1H693Z M0 409h22v1H0Z M34 409h39v1H34Z M173 409h21v1H173Z M294 409h39v1H294Z M345 409h23v1H345Z M406 409h40v1H406Z M519 409h21v1H519Z M616 409h38v1H616Z M693 409h21v1H693Z M0 410h21v1H0Z M36 410h39v1H36Z M173 410h21v1H173Z M292 410h39v1H292Z M345 410h23v1H345Z M408 410h39v1H408Z M519 410h21v1H519Z M615 410h38v1H615Z M693 410h21v1H693Z M0 411h21v1H0Z M37 411h40v1H37Z M173 411h21v1H173Z M290 411h39v1H290Z M346 411h22v1H346Z M409 411h40v1H409Z M519 411h21v1H519Z M613 411h38v1H613Z M693 411h21v1H693Z M0 412h21v1H0Z M39 412h40v1H39Z M173 412h21v1H173Z M289 412h39v1H289Z M346 412h22v1H346Z M411 412h39v1H411Z M519 412h21v1H519Z M611 412h38v1H611Z M693 412h21v1H693Z M0 413h21v1H0Z M41 413h39v1H41Z M173 413h21v1H173Z M287 413h39v1H287Z M346 413h22v1H346Z M413 413h39v1H413Z M519 413h21v1H519Z M610 413h38v1H610Z M693 413h21v1H693Z M0 414h20v1H0Z M42 414h40v1H42Z M173 414h21v1H173Z M285 414h39v1H285Z M346 414h22v1H346Z M415 414h39v1H415Z M519 414h21v1H519Z M608 414h38v1H608Z M693 414h21v1H693Z M0 415h20v1H0Z M44 415h39v1H44Z M173 415h21v1H173Z M284 415h39v1H284Z M346 415h22v1H346Z M416 415h39v1H416Z M519 415h21v1H519Z M606 415h38v1H606Z M693 415h21v1H693Z M0 416h20v1H0Z M46 416h39v1H46Z M173 416h21v1H173Z M282 416h39v1H282Z M346 416h22v1H346Z M418 416h39v1H418Z M519 416h21v1H519Z M605 416h38v1H605Z M693 416h21v1H693Z M0 417h20v1H0Z M47 417h40v1H47Z M173 417h21v1H173Z M281 417h38v1H281Z M346 417h22v1H346Z M419 417h40v1H419Z M519 417h21v1H519Z M603 417h38v1H603Z M693 417h21v1H693Z M0 418h20v1H0Z M49 418h40v1H49Z M173 418h21v1H173Z M279 418h39v1H279Z M346 418h22v1H346Z M421 418h39v1H421Z M519 418h21v1H519Z M601 418h38v1H601Z M693 418h21v1H693Z M0 419h20v1H0Z M51 419h39v1H51Z M173 419h21v1H173Z M277 419h39v1H277Z M346 419h22v1H346Z M423 419h39v1H423Z M519 419h21v1H519Z M600 419h38v1H600Z M693 419h21v1H693Z M0 420h20v1H0Z M53 420h39v1H53Z M173 420h21v1H173Z M276 420h38v1H276Z M346 420h22v1H346Z M425 420h39v1H425Z M519 420h21v1H519Z M598 420h38v1H598Z M693 420h21v1H693Z M0 421h20v1H0Z M54 421h40v1H54Z M173 421h21v1H173Z M274 421h39v1H274Z M346 421h22v1H346Z M426 421h39v1H426Z M519 421h21v1H519Z M597 421h37v1H597Z M693 421h21v1H693Z M0 422h20v1H0Z M56 422h39v1H56Z M173 422h21v1H173Z M272 422h39v1H272Z M346 422h22v1H346Z M428 422h39v1H428Z M519 422h21v1H519Z M595 422h38v1H595Z M693 422h21v1H693Z M0 423h20v1H0Z M58 423h39v1H58Z M173 423h21v1H173Z M271 423h38v1H271Z M346 423h22v1H346Z M429 423h40v1H429Z M519 423h21v1H519Z M593 423h38v1H593Z M693 423h21v1H693Z M0 424h20v1H0Z M59 424h39v1H59Z M173 424h21v1H173Z M269 424h39v1H269Z M346 424h22v1H346Z M431 424h39v1H431Z M519 424h21v1H519Z M592 424h37v1H592Z M693 424h21v1H693Z M0 425h20v1H0Z M61 425h39v1H61Z M173 425h21v1H173Z M267 425h39v1H267Z M346 425h22v1H346Z M433 425h39v1H433Z M519 425h21v1H519Z M590 425h38v1H590Z M693 425h21v1H693Z M0 426h20v1H0Z M62 426h40v1H62Z M173 426h21v1H173Z M266 426h38v1H266Z M346 426h22v1H346Z M434 426h40v1H434Z M519 426h21v1H519Z M589 426h37v1H589Z M693 426h21v1H693Z M0 427h20v1H0Z M64 427h40v1H64Z M173 427h21v1H173Z M264 427h38v1H264Z M346 427h22v1H346Z M436 427h39v1H436Z M519 427h21v1H519Z M587 427h37v1H587Z M693 427h21v1H693Z M0 428h20v1H0Z M66 428h39v1H66Z M173 428h21v1H173Z M263 428h38v1H263Z M346 428h22v1H346Z M438 428h39v1H438Z M519 428h21v1H519Z M585 428h37v1H585Z M693 428h21v1H693Z M0 429h20v1H0Z M67 429h40v1H67Z M173 429h21v1H173Z M261 429h38v1H261Z M346 429h22v1H346Z M439 429h40v1H439Z M519 429h21v1H519Z M583 429h38v1H583Z M693 429h21v1H693Z M0 430h20v1H0Z M69 430h40v1H69Z M173 430h21v1H173Z M259 430h39v1H259Z M346 430h22v1H346Z M441 430h39v1H441Z M519 430h21v1H519Z M582 430h37v1H582Z M693 430h21v1H693Z M0 431h20v1H0Z M71 431h39v1H71Z M173 431h21v1H173Z M257 431h39v1H257Z M346 431h22v1H346Z M443 431h39v1H443Z M519 431h21v1H519Z M580 431h38v1H580Z M693 431h21v1H693Z M0 432h20v1H0Z M73 432h39v1H73Z M173 432h21v1H173Z M256 432h38v1H256Z M346 432h22v1H346Z M444 432h40v1H444Z M519 432h21v1H519Z M579 432h37v1H579Z M693 432h21v1H693Z M0 433h20v1H0Z M74 433h39v1H74Z M173 433h21v1H173Z M254 433h38v1H254Z M346 433h22v1H346Z M446 433h39v1H446Z M519 433h21v1H519Z M577 433h37v1H577Z M693 433h21v1H693Z M0 434h20v1H0Z M76 434h39v1H76Z M173 434h21v1H173Z M253 434h38v1H253Z M346 434h22v1H346Z M448 434h39v1H448Z M519 434h21v1H519Z M575 434h38v1H575Z M693 434h21v1H693Z M0 435h20v1H0Z M77 435h40v1H77Z M173 435h21v1H173Z M251 435h38v1H251Z M346 435h22v1H346Z M449 435h40v1H449Z M519 435h21v1H519Z M574 435h37v1H574Z M693 435h21v1H693Z M0 436h20v1H0Z M79 436h39v1H79Z M173 436h21v1H173Z M249 436h39v1H249Z M346 436h22v1H346Z M451 436h39v1H451Z M519 436h21v1H519Z M572 436h37v1H572Z M693 436h21v1H693Z M0 437h20v1H0Z M81 437h39v1H81Z M173 437h21v1H173Z M248 437h38v1H248Z M346 437h22v1H346Z M453 437h39v1H453Z M519 437h21v1H519Z M570 437h38v1H570Z M693 437h21v1H693Z M0 438h20v1H0Z M82 438h40v1H82Z M173 438h21v1H173Z M246 438h38v1H246Z M346 438h22v1H346Z M454 438h40v1H454Z M519 438h21v1H519Z M569 438h37v1H569Z M693 438h21v1H693Z M0 439h20v1H0Z M84 439h40v1H84Z M173 439h21v1H173Z M244 439h39v1H244Z M346 439h22v1H346Z M456 439h39v1H456Z M519 439h21v1H519Z M567 439h37v1H567Z M693 439h21v1H693Z M0 440h20v1H0Z M86 440h39v1H86Z M173 440h21v1H173Z M243 440h38v1H243Z M346 440h22v1H346Z M458 440h39v1H458Z M519 440h21v1H519Z M566 440h36v1H566Z M693 440h21v1H693Z M0 441h20v1H0Z M87 441h40v1H87Z M173 441h21v1H173Z M241 441h38v1H241Z M346 441h22v1H346Z M459 441h40v1H459Z M519 441h21v1H519Z M564 441h37v1H564Z M693 441h21v1H693Z M0 442h20v1H0Z M89 442h40v1H89Z M173 442h21v1H173Z M239 442h39v1H239Z M346 442h22v1H346Z M461 442h39v1H461Z M519 442h21v1H519Z M562 442h37v1H562Z M693 442h21v1H693Z M0 443h20v1H0Z M91 443h39v1H91Z M173 443h21v1H173Z M238 443h38v1H238Z M346 443h22v1H346Z M462 443h40v1H462Z M519 443h22v1H519Z M561 443h36v1H561Z M693 443h21v1H693Z M0 444h20v1H0Z M92 444h40v1H92Z M173 444h21v1H173Z M236 444h38v1H236Z M346 444h22v1H346Z M464 444h39v1H464Z M518 444h23v1H518Z M559 444h37v1H559Z M693 444h21v1H693Z M0 445h20v1H0Z M94 445h40v1H94Z M173 445h21v1H173Z M234 445h38v1H234Z M346 445h22v1H346Z M466 445h39v1H466Z M518 445h23v1H518Z M557 445h37v1H557Z M693 445h21v1H693Z M0 446h20v1H0Z M96 446h39v1H96Z M173 446h21v1H173Z M233 446h38v1H233Z M346 446h22v1H346Z M467 446h40v1H467Z M517 446h24v1H517Z M556 446h36v1H556Z M693 446h21v1H693Z M0 447h20v1H0Z M98 447h39v1H98Z M173 447h21v1H173Z M231 447h38v1H231Z M346 447h22v1H346Z M469 447h40v1H469Z M517 447h25v1H517Z M554 447h37v1H554Z M693 447h21v1H693Z M0 448h20v1H0Z M99 448h40v1H99Z M173 448h21v1H173Z M230 448h37v1H230Z M346 448h22v1H346Z M471 448h41v1H471Z M516 448h26v1H516Z M552 448h37v1H552Z M693 448h21v1H693Z M0 449h20v1H0Z M101 449h39v1H101Z M173 449h21v1H173Z M228 449h38v1H228Z M346 449h22v1H346Z M472 449h71v1H472Z M550 449h37v1H550Z M693 449h21v1H693Z M0 450h20v1H0Z M102 450h40v1H102Z M173 450h21v1H173Z M226 450h38v1H226Z M346 450h22v1H346Z M474 450h112v1H474Z M693 450h21v1H693Z M0 451h20v1H0Z M104 451h40v1H104Z M173 451h21v1H173Z M225 451h38v1H225Z M346 451h22v1H346Z M476 451h108v1H476Z M693 451h21v1H693Z M0 452h20v1H0Z M106 452h39v1H106Z M173 452h21v1H173Z M223 452h38v1H223Z M346 452h22v1H346Z M477 452h105v1H477Z M693 452h21v1H693Z M0 453h20v1H0Z M107 453h40v1H107Z M173 453h21v1H173Z M221 453h38v1H221Z M346 453h22v1H346Z M479 453h102v1H479Z M693 453h21v1H693Z M0 454h20v1H0Z M109 454h40v1H109Z M173 454h21v1H173Z M220 454h38v1H220Z M346 454h22v1H346Z M481 454h98v1H481Z M693 454h21v1H693Z M0 455h20v1H0Z M111 455h39v1H111Z M173 455h21v1H173Z M218 455h38v1H218Z M346 455h22v1H346Z M482 455h95v1H482Z M693 455h21v1H693Z M0 456h20v1H0Z M112 456h40v1H112Z M173 456h21v1H173Z M217 456h37v1H217Z M346 456h22v1H346Z M484 456h92v1H484Z M693 456h21v1H693Z M0 457h20v1H0Z M114 457h40v1H114Z M173 457h21v1H173Z M215 457h37v1H215Z M346 457h22v1H346Z M486 457h88v1H486Z M693 457h21v1H693Z M0 458h20v1H0Z M116 458h39v1H116Z M172 458h22v1H172Z M213 458h38v1H213Z M346 458h22v1H346Z M487 458h85v1H487Z M693 458h21v1H693Z M0 459h20v1H0Z M117 459h40v1H117Z M172 459h22v1H172Z M211 459h38v1H211Z M346 459h22v1H346Z M489 459h82v1H489Z M693 459h21v1H693Z M0 460h20v1H0Z M119 460h40v1H119Z M172 460h23v1H172Z M210 460h38v1H210Z M346 460h22v1H346Z M490 460h79v1H490Z M693 460h21v1H693Z M0 461h20v1H0Z M121 461h39v1H121Z M172 461h23v1H172Z M208 461h38v1H208Z M346 461h22v1H346Z M492 461h75v1H492Z M693 461h21v1H693Z M0 462h20v1H0Z M122 462h40v1H122Z M171 462h24v1H171Z M207 462h37v1H207Z M346 462h22v1H346Z M494 462h71v1H494Z M693 462h21v1H693Z M0 463h20v1H0Z M124 463h40v1H124Z M170 463h26v1H170Z M205 463h37v1H205Z M346 463h22v1H346Z M495 463h69v1H495Z M693 463h21v1H693Z M0 464h20v1H0Z M126 464h71v1H126Z M202 464h39v1H202Z M346 464h22v1H346Z M497 464h65v1H497Z M693 464h21v1H693Z M0 465h20v1H0Z M127 465h112v1H127Z M346 465h22v1H346Z M499 465h61v1H499Z M693 465h21v1H693Z M0 466h20v1H0Z M129 466h108v1H129Z M346 466h22v1H346Z M500 466h59v1H500Z M693 466h21v1H693Z M0 467h20v1H0Z M130 467h106v1H130Z M346 467h22v1H346Z M502 467h55v1H502Z M693 467h21v1H693Z M0 468h20v1H0Z M132 468h102v1H132Z M346 468h22v1H346Z M503 468h52v1H503Z M693 468h21v1H693Z M0 469h20v1H0Z M134 469h98v1H134Z M346 469h22v1H346Z M505 469h49v1H505Z M693 469h21v1H693Z M0 470h20v1H0Z M136 470h95v1H136Z M346 470h22v1H346Z M507 470h45v1H507Z M693 470h21v1H693Z M0 471h20v1H0Z M137 471h92v1H137Z M346 471h22v1H346Z M508 471h43v1H508Z M693 471h21v1H693Z M0 472h20v1H0Z M139 472h89v1H139Z M346 472h22v1H346Z M510 472h39v1H510Z M693 472h21v1H693Z M0 473h20v1H0Z M140 473h86v1H140Z M346 473h22v1H346Z M511 473h37v1H511Z M693 473h21v1H693Z M0 474h20v1H0Z M142 474h82v1H142Z M346 474h22v1H346Z M512 474h35v1H512Z M693 474h21v1H693Z M0 475h20v1H0Z M144 475h78v1H144Z M346 475h22v1H346Z M513 475h33v1H513Z M693 475h21v1H693Z M0 476h20v1H0Z M145 476h76v1H145Z M346 476h22v1H346Z M514 476h31v1H514Z M693 476h21v1H693Z M0 477h20v1H0Z M147 477h72v1H147Z M346 477h22v1H346Z M515 477h30v1H515Z M693 477h21v1H693Z M0 478h20v1H0Z M149 478h68v1H149Z M346 478h22v1H346Z M516 478h28v1H516Z M693 478h21v1H693Z M0 479h20v1H0Z M150 479h66v1H150Z M346 479h22v1H346Z M516 479h27v1H516Z M693 479h21v1H693Z M0 480h20v1H0Z M152 480h62v1H152Z M346 480h22v1H346Z M517 480h26v1H517Z M693 480h21v1H693Z M0 481h20v1H0Z M153 481h59v1H153Z M346 481h22v1H346Z M517 481h25v1H517Z M693 481h21v1H693Z M0 482h20v1H0Z M155 482h56v1H155Z M346 482h22v1H346Z M517 482h25v1H517Z M693 482h21v1H693Z M0 483h20v1H0Z M157 483h52v1H157Z M346 483h22v1H346Z M518 483h23v1H518Z M693 483h21v1H693Z M0 484h20v1H0Z M158 484h49v1H158Z M346 484h22v1H346Z M518 484h23v1H518Z M693 484h21v1H693Z M0 485h20v1H0Z M160 485h46v1H160Z M346 485h22v1H346Z M518 485h23v1H518Z M693 485h21v1H693Z M0 486h20v1H0Z M162 486h42v1H162Z M346 486h22v1H346Z M519 486h21v1H519Z M693 486h21v1H693Z M0 487h20v1H0Z M163 487h40v1H163Z M346 487h22v1H346Z M519 487h21v1H519Z M693 487h21v1H693Z M0 488h20v1H0Z M164 488h37v1H164Z M346 488h22v1H346Z M519 488h21v1H519Z M693 488h21v1H693Z M0 489h20v1H0Z M165 489h35v1H165Z M346 489h22v1H346Z M519 489h21v1H519Z M693 489h21v1H693Z M0 490h20v1H0Z M166 490h33v1H166Z M346 490h22v1H346Z M519 490h21v1H519Z M693 490h21v1H693Z M0 491h20v1H0Z M167 491h31v1H167Z M346 491h22v1H346Z M519 491h21v1H519Z M693 491h21v1H693Z M0 492h20v1H0Z M168 492h30v1H168Z M346 492h22v1H346Z M519 492h21v1H519Z M693 492h21v1H693Z M0 493h20v1H0Z M169 493h28v1H169Z M346 493h22v1H346Z M519 493h21v1H519Z M693 493h21v1H693Z M0 494h20v1H0Z M169 494h27v1H169Z M346 494h22v1H346Z M519 494h21v1H519Z M693 494h21v1H693Z M0 495h20v1H0Z M170 495h26v1H170Z M346 495h22v1H346Z M519 495h21v1H519Z M693 495h21v1H693Z M0 496h20v1H0Z M170 496h26v1H170Z M346 496h22v1H346Z M519 496h21v1H519Z M693 496h21v1H693Z M0 497h20v1H0Z M171 497h24v1H171Z M346 497h22v1H346Z M519 497h21v1H519Z M693 497h21v1H693Z M0 498h20v1H0Z M171 498h24v1H171Z M346 498h22v1H346Z M519 498h21v1H519Z M693 498h21v1H693Z M0 499h20v1H0Z M172 499h22v1H172Z M346 499h22v1H346Z M519 499h21v1H519Z M693 499h21v1H693Z M0 500h20v1H0Z M172 500h22v1H172Z M346 500h22v1H346Z M519 500h21v1H519Z M693 500h21v1H693Z M0 501h20v1H0Z M172 501h22v1H172Z M346 501h22v1H346Z M519 501h21v1H519Z M693 501h21v1H693Z M0 502h20v1H0Z M172 502h22v1H172Z M346 502h22v1H346Z M519 502h21v1H519Z M693 502h21v1H693Z M0 503h20v1H0Z M172 503h22v1H172Z M346 503h22v1H346Z M519 503h21v1H519Z M693 503h21v1H693Z M0 504h20v1H0Z M172 504h22v1H172Z M346 504h22v1H346Z M519 504h21v1H519Z M693 504h21v1H693Z M0 505h20v1H0Z M173 505h21v1H173Z M346 505h22v1H346Z M519 505h21v1H519Z M693 505h21v1H693Z M0 506h20v1H0Z M173 506h21v1H173Z M346 506h22v1H346Z M519 506h21v1H519Z M693 506h21v1H693Z M0 507h20v1H0Z M173 507h21v1H173Z M346 507h22v1H346Z M519 507h21v1H519Z M693 507h21v1H693Z M0 508h20v1H0Z M173 508h21v1H173Z M346 508h22v1H346Z M519 508h21v1H519Z M693 508h21v1H693Z M0 509h20v1H0Z M173 509h21v1H173Z M346 509h22v1H346Z M519 509h21v1H519Z M693 509h21v1H693Z M0 510h20v1H0Z M173 510h21v1H173Z M346 510h22v1H346Z M519 510h21v1H519Z M693 510h21v1H693Z M0 511h20v1H0Z M173 511h21v1H173Z M346 511h22v1H346Z M519 511h21v1H519Z M693 511h21v1H693Z M0 512h20v1H0Z M173 512h21v1H173Z M346 512h22v1H346Z M519 512h21v1H519Z M693 512h21v1H693Z M0 513h20v1H0Z M173 513h21v1H173Z M346 513h22v1H346Z M519 513h21v1H519Z M693 513h21v1H693Z M0 514h20v1H0Z M173 514h21v1H173Z M346 514h22v1H346Z M519 514h21v1H519Z M693 514h21v1H693Z M0 515h20v1H0Z M173 515h21v1H173Z M346 515h22v1H346Z M519 515h21v1H519Z M693 515h21v1H693Z M0 516h20v1H0Z M173 516h21v1H173Z M346 516h22v1H346Z M519 516h21v1H519Z M693 516h21v1H693Z M0 517h20v1H0Z M173 517h21v1H173Z M346 517h22v1H346Z M519 517h21v1H519Z M693 517h21v1H693Z M0 518h20v1H0Z M173 518h21v1H173Z M346 518h22v1H346Z M519 518h21v1H519Z M693 518h21v1H693Z M0 519h20v1H0Z M173 519h21v1H173Z M346 519h22v1H346Z M519 519h21v1H519Z M693 519h21v1H693Z M0 520h20v1H0Z M173 520h21v1H173Z M346 520h22v1H346Z M519 520h21v1H519Z M693 520h21v1H693Z M0 521h20v1H0Z M173 521h21v1H173Z M346 521h22v1H346Z M519 521h21v1H519Z M693 521h21v1H693Z M0 522h20v1H0Z M173 522h21v1H173Z M346 522h22v1H346Z M519 522h21v1H519Z M693 522h21v1H693Z M0 523h20v1H0Z M173 523h21v1H173Z M346 523h22v1H346Z M519 523h21v1H519Z M693 523h21v1H693Z M0 524h20v1H0Z M173 524h21v1H173Z M346 524h22v1H346Z M519 524h21v1H519Z M693 524h21v1H693Z M0 525h20v1H0Z M173 525h21v1H173Z M346 525h22v1H346Z M519 525h21v1H519Z M693 525h21v1H693Z M0 526h20v1H0Z M173 526h21v1H173Z M346 526h22v1H346Z M519 526h21v1H519Z M693 526h21v1H693Z M0 527h20v1H0Z M173 527h21v1H173Z M346 527h22v1H346Z M519 527h21v1H519Z M693 527h21v1H693Z M0 528h20v1H0Z M173 528h21v1H173Z M346 528h22v1H346Z M519 528h21v1H519Z M693 528h21v1H693Z M0 529h20v1H0Z M173 529h21v1H173Z M346 529h22v1H346Z M519 529h21v1H519Z M693 529h21v1H693Z M0 530h20v1H0Z M173 530h21v1H173Z M346 530h22v1H346Z M519 530h21v1H519Z M693 530h21v1H693Z M0 531h20v1H0Z M173 531h21v1H173Z M346 531h22v1H346Z M519 531h21v1H519Z M693 531h21v1H693Z M0 532h20v1H0Z M173 532h21v1H173Z M346 532h22v1H346Z M519 532h21v1H519Z M693 532h21v1H693Z M0 533h20v1H0Z M173 533h21v1H173Z M346 533h22v1H346Z M519 533h21v1H519Z M693 533h21v1H693Z M0 534h20v1H0Z M173 534h21v1H173Z M346 534h22v1H346Z M519 534h21v1H519Z M693 534h21v1H693Z M0 535h20v1H0Z M173 535h21v1H173Z M346 535h22v1H346Z M519 535h21v1H519Z M693 535h21v1H693Z M0 536h20v1H0Z M173 536h21v1H173Z M346 536h22v1H346Z M519 536h21v1H519Z M693 536h21v1H693Z M0 537h20v1H0Z M173 537h21v1H173Z M346 537h22v1H346Z M519 537h21v1H519Z M693 537h21v1H693Z M0 538h20v1H0Z M173 538h21v1H173Z M346 538h22v1H346Z M519 538h21v1H519Z M693 538h21v1H693Z M0 539h20v1H0Z M173 539h21v1H173Z M346 539h22v1H346Z M519 539h21v1H519Z M693 539h21v1H693Z M0 540h20v1H0Z M173 540h21v1H173Z M346 540h22v1H346Z M519 540h21v1H519Z M693 540h21v1H693Z M0 541h20v1H0Z M173 541h21v1H173Z M346 541h22v1H346Z M519 541h21v1H519Z M693 541h21v1H693Z M0 542h20v1H0Z M173 542h21v1H173Z M346 542h22v1H346Z M519 542h21v1H519Z M693 542h21v1H693Z M0 543h20v1H0Z M173 543h21v1H173Z M346 543h22v1H346Z M519 543h21v1H519Z M693 543h21v1H693Z M0 544h20v1H0Z M173 544h21v1H173Z M346 544h22v1H346Z M519 544h21v1H519Z M693 544h21v1H693Z M0 545h20v1H0Z M173 545h21v1H173Z M346 545h22v1H346Z M519 545h21v1H519Z M693 545h21v1H693Z M0 546h20v1H0Z M173 546h21v1H173Z M346 546h22v1H346Z M519 546h21v1H519Z M693 546h21v1H693Z M0 547h20v1H0Z M173 547h21v1H173Z M346 547h22v1H346Z M519 547h21v1H519Z M693 547h21v1H693Z M0 548h20v1H0Z M173 548h21v1H173Z M346 548h22v1H346Z M519 548h21v1H519Z M693 548h21v1H693Z M0 549h20v1H0Z M173 549h21v1H173Z M346 549h22v1H346Z M519 549h21v1H519Z M693 549h21v1H693Z M0 550h20v1H0Z M173 550h21v1H173Z M346 550h22v1H346Z M519 550h21v1H519Z M693 550h21v1H693Z M0 551h20v1H0Z M173 551h21v1H173Z M346 551h22v1H346Z M519 551h21v1H519Z M693 551h21v1H693Z M0 552h20v1H0Z M173 552h21v1H173Z M346 552h22v1H346Z M519 552h21v1H519Z M693 552h21v1H693Z M0 553h21v1H0Z M173 553h21v1H173Z M346 553h22v1H346Z M519 553h21v1H519Z M693 553h21v1H693Z M0 554h21v1H0Z M173 554h21v1H173Z M346 554h22v1H346Z M519 554h21v1H519Z M693 554h21v1H693Z M0 555h21v1H0Z M173 555h21v1H173Z M346 555h22v1H346Z M519 555h21v1H519Z M693 555h21v1H693Z M0 556h21v1H0Z M173 556h21v1H173Z M346 556h22v1H346Z M519 556h21v1H519Z M693 556h21v1H693Z M0 557h21v1H0Z M173 557h21v1H173Z M346 557h22v1H346Z M519 557h21v1H519Z M693 557h21v1H693Z M0 558h21v1H0Z M173 558h21v1H173Z M346 558h22v1H346Z M519 558h21v1H519Z M693 558h21v1H693Z M0 559h21v1H0Z M173 559h21v1H173Z M346 559h22v1H346Z M519 559h21v1H519Z M693 559h21v1H693Z M0 560h21v1H0Z M173 560h21v1H173Z M346 560h22v1H346Z M519 560h21v1H519Z M693 560h21v1H693Z M0 561h21v1H0Z M173 561h21v1H173Z M346 561h22v1H346Z M519 561h21v1H519Z M693 561h21v1H693Z M0 562h21v1H0Z M173 562h21v1H173Z M346 562h22v1H346Z M519 562h21v1H519Z M693 562h21v1H693Z M0 563h21v1H0Z M173 563h21v1H173Z M345 563h23v1H345Z M519 563h21v1H519Z M693 563h21v1H693Z M0 564h22v1H0Z M173 564h21v1H173Z M345 564h23v1H345Z M519 564h21v1H519Z M693 564h21v1H693Z M0 565h22v1H0Z M173 565h21v1H173Z M345 565h23v1H345Z M519 565h21v1H519Z M693 565h21v1H693Z M0 566h22v1H0Z M173 566h21v1H173Z M345 566h23v1H345Z M519 566h21v1H519Z M693 566h21v1H693Z M0 567h23v1H0Z M173 567h21v1H173Z M344 567h24v1H344Z M519 567h21v1H519Z M693 567h21v1H693Z M0 568h23v1H0Z M173 568h21v1H173Z M344 568h24v1H344Z M519 568h21v1H519Z M693 568h21v1H693Z M0 569h24v1H0Z M173 569h21v1H173Z M343 569h25v1H343Z M519 569h21v1H519Z M693 569h21v1H693Z M0 570h24v1H0Z M173 570h21v1H173Z M343 570h25v1H343Z M519 570h21v1H519Z M693 570h21v1H693Z M0 571h25v1H0Z M173 571h21v1H173Z M342 571h26v1H342Z M519 571h21v1H519Z M693 571h21v1H693Z M0 572h25v1H0Z M173 572h21v1H173Z M341 572h27v1H341Z M519 572h21v1H519Z M693 572h21v1H693Z M0 573h26v1H0Z M173 573h21v1H173Z M341 573h27v1H341Z M519 573h21v1H519Z M693 573h21v1H693Z M0 574h27v1H0Z M173 574h21v1H173Z M340 574h28v1H340Z M519 574h21v1H519Z M693 574h21v1H693Z M1 575h27v1H1Z M173 575h21v1H173Z M339 575h29v1H339Z M519 575h21v1H519Z M693 575h21v1H693Z M1 576h28v1H1Z M173 576h21v1H173Z M337 576h31v1H337Z M519 576h21v1H519Z M693 576h21v1H693Z M1 577h29v1H1Z M173 577h21v1H173Z M336 577h32v1H336Z M519 577h21v1H519Z M693 577h21v1H693Z M1 578h31v1H1Z M173 578h21v1H173Z M335 578h33v1H335Z M519 578h21v1H519Z M693 578h21v1H693Z M2 579h31v1H2Z M173 579h21v1H173Z M333 579h35v1H333Z M519 579h21v1H519Z M693 579h21v1H693Z M2 580h33v1H2Z M173 580h21v1H173Z M332 580h36v1H332Z M519 580h21v1H519Z M693 580h21v1H693Z M3 581h33v1H3Z M173 581h21v1H173Z M330 581h38v1H330Z M519 581h21v1H519Z M693 581h21v1H693Z M4 582h34v1H4Z M173 582h21v1H173Z M329 582h39v1H329Z M519 582h21v1H519Z M693 582h21v1H693Z M4 583h36v1H4Z M173 583h21v1H173Z M327 583h41v1H327Z M519 583h21v1H519Z M693 583h21v1H693Z M5 584h36v1H5Z M173 584h21v1H173Z M325 584h43v1H325Z M519 584h21v1H519Z M693 584h21v1H693Z M6 585h37v1H6Z M173 585h21v1H173Z M324 585h44v1H324Z M519 585h21v1H519Z M693 585h21v1H693Z M7 586h38v1H7Z M173 586h21v1H173Z M322 586h46v1H322Z M519 586h21v1H519Z M693 586h21v1H693Z M8 587h38v1H8Z M173 587h21v1H173Z M320 587h48v1H320Z M519 587h21v1H519Z M693 587h21v1H693Z M10 588h38v1H10Z M173 588h21v1H173Z M319 588h49v1H319Z M519 588h21v1H519Z M693 588h21v1H693Z M11 589h38v1H11Z M173 589h21v1H173Z M317 589h51v1H317Z M519 589h21v1H519Z M693 589h21v1H693Z M13 590h38v1H13Z M173 590h21v1H173Z M315 590h53v1H315Z M519 590h21v1H519Z M693 590h21v1H693Z M14 591h39v1H14Z M173 591h21v1H173Z M314 591h54v1H314Z M519 591h21v1H519Z M693 591h21v1H693Z M16 592h39v1H16Z M173 592h21v1H173Z M312 592h56v1H312Z M519 592h21v1H519Z M693 592h21v1H693Z M17 593h39v1H17Z M173 593h21v1H173Z M310 593h58v1H310Z M519 593h21v1H519Z M693 593h21v1H693Z M19 594h39v1H19Z M173 594h21v1H173Z M309 594h59v1H309Z M519 594h21v1H519Z M693 594h21v1H693Z M21 595h38v1H21Z M173 595h21v1H173Z M307 595h61v1H307Z M519 595h21v1H519Z M693 595h21v1H693Z M22 596h39v1H22Z M173 596h21v1H173Z M305 596h63v1H305Z M519 596h21v1H519Z M693 596h21v1H693Z M24 597h39v1H24Z M173 597h21v1H173Z M304 597h64v1H304Z M519 597h21v1H519Z M693 597h21v1H693Z M26 598h38v1H26Z M173 598h21v1H173Z M302 598h66v1H302Z M519 598h21v1H519Z M693 598h21v1H693Z M27 599h39v1H27Z M173 599h21v1H173Z M300 599h68v1H300Z M519 599h21v1H519Z M693 599h21v1H693Z M29 600h39v1H29Z M173 600h21v1H173Z M299 600h69v1H299Z M519 600h21v1H519Z M693 600h21v1H693Z M31 601h38v1H31Z M173 601h21v1H173Z M297 601h41v1H297Z M343 601h25v1H343Z M519 601h21v1H519Z M693 601h21v1H693Z M33 602h38v1H33Z M173 602h21v1H173Z M295 602h41v1H295Z M344 602h24v1H344Z M519 602h21v1H519Z M693 602h21v1H693Z M34 603h39v1H34Z M173 603h21v1H173Z M294 603h40v1H294Z M345 603h23v1H345Z M519 603h21v1H519Z M693 603h21v1H693Z M36 604h38v1H36Z M173 604h21v1H173Z M292 604h40v1H292Z M345 604h23v1H345Z M519 604h21v1H519Z M693 604h21v1H693Z M38 605h38v1H38Z M173 605h21v1H173Z M290 605h41v1H290Z M346 605h22v1H346Z M519 605h21v1H519Z M693 605h21v1H693Z M39 606h39v1H39Z M173 606h21v1H173Z M289 606h40v1H289Z M346 606h22v1H346Z M519 606h21v1H519Z M693 606h21v1H693Z M41 607h38v1H41Z M173 607h21v1H173Z M287 607h40v1H287Z M346 607h22v1H346Z M519 607h21v1H519Z M693 607h21v1H693Z M43 608h38v1H43Z M173 608h21v1H173Z M285 608h41v1H285Z M346 608h22v1H346Z M519 608h21v1H519Z M693 608h21v1H693Z M45 609h38v1H45Z M173 609h21v1H173Z M284 609h40v1H284Z M346 609h22v1H346Z M519 609h21v1H519Z M693 609h21v1H693Z M46 610h39v1H46Z M173 610h21v1H173Z M282 610h40v1H282Z M346 610h22v1H346Z M519 610h21v1H519Z M693 610h21v1H693Z M48 611h38v1H48Z M173 611h21v1H173Z M280 611h41v1H280Z M347 611h21v1H347Z M519 611h21v1H519Z M693 611h21v1H693Z M50 612h38v1H50Z M173 612h21v1H173Z M279 612h40v1H279Z M347 612h21v1H347Z M519 612h21v1H519Z M693 612h21v1H693Z M51 613h38v1H51Z M173 613h21v1H173Z M277 613h40v1H277Z M347 613h21v1H347Z M519 613h21v1H519Z M693 613h21v1H693Z M53 614h38v1H53Z M173 614h21v1H173Z M275 614h41v1H275Z M347 614h21v1H347Z M519 614h21v1H519Z M693 614h21v1H693Z M55 615h38v1H55Z M173 615h21v1H173Z M274 615h40v1H274Z M347 615h21v1H347Z M519 615h21v1H519Z M693 615h21v1H693Z M57 616h37v1H57Z M173 616h21v1H173Z M272 616h40v1H272Z M347 616h21v1H347Z M519 616h21v1H519Z M693 616h21v1H693Z M58 617h38v1H58Z M173 617h21v1H173Z M270 617h41v1H270Z M347 617h21v1H347Z M519 617h21v1H519Z M693 617h21v1H693Z M60 618h38v1H60Z M173 618h21v1H173Z M269 618h40v1H269Z M347 618h21v1H347Z M519 618h21v1H519Z M693 618h21v1H693Z M61 619h38v1H61Z M173 619h21v1H173Z M267 619h40v1H267Z M347 619h21v1H347Z M519 619h21v1H519Z M693 619h21v1H693Z M63 620h38v1H63Z M173 620h21v1H173Z M265 620h41v1H265Z M347 620h21v1H347Z M519 620h21v1H519Z M693 620h21v1H693Z M65 621h38v1H65Z M173 621h21v1H173Z M264 621h40v1H264Z M347 621h21v1H347Z M519 621h21v1H519Z M693 621h21v1H693Z M66 622h39v1H66Z M173 622h21v1H173Z M262 622h41v1H262Z M347 622h21v1H347Z M519 622h21v1H519Z M693 622h21v1H693Z M68 623h38v1H68Z M173 623h21v1H173Z M260 623h41v1H260Z M347 623h21v1H347Z M519 623h21v1H519Z M693 623h21v1H693Z M70 624h38v1H70Z M173 624h21v1H173Z M259 624h40v1H259Z M347 624h21v1H347Z M519 624h21v1H519Z M693 624h21v1H693Z M71 625h38v1H71Z M173 625h21v1H173Z M257 625h41v1H257Z M347 625h21v1H347Z M519 625h21v1H519Z M693 625h21v1H693Z M73 626h38v1H73Z M173 626h21v1H173Z M255 626h41v1H255Z M347 626h21v1H347Z M519 626h21v1H519Z M693 626h21v1H693Z M75 627h38v1H75Z M173 627h21v1H173Z M254 627h40v1H254Z M347 627h21v1H347Z M519 627h21v1H519Z M693 627h21v1H693Z M76 628h39v1H76Z M173 628h21v1H173Z M252 628h41v1H252Z M347 628h21v1H347Z M519 628h21v1H519Z M693 628h21v1H693Z M78 629h38v1H78Z M173 629h21v1H173Z M250 629h41v1H250Z M347 629h21v1H347Z M519 629h21v1H519Z M693 629h21v1H693Z M80 630h38v1H80Z M173 630h21v1H173Z M248 630h41v1H248Z M347 630h21v1H347Z M519 630h21v1H519Z M693 630h21v1H693Z M81 631h39v1H81Z M173 631h21v1H173Z M247 631h41v1H247Z M347 631h21v1H347Z M519 631h21v1H519Z M693 631h21v1H693Z M83 632h38v1H83Z M173 632h21v1H173Z M245 632h41v1H245Z M347 632h21v1H347Z M519 632h21v1H519Z M693 632h21v1H693Z M85 633h38v1H85Z M173 633h21v1H173Z M243 633h41v1H243Z M347 633h21v1H347Z M519 633h21v1H519Z M693 633h21v1H693Z M86 634h39v1H86Z M173 634h21v1H173Z M242 634h41v1H242Z M347 634h21v1H347Z M519 634h21v1H519Z M693 634h21v1H693Z M88 635h38v1H88Z M173 635h21v1H173Z M240 635h41v1H240Z M347 635h21v1H347Z M519 635h21v1H519Z M693 635h21v1H693Z M89 636h39v1H89Z M173 636h21v1H173Z M238 636h41v1H238Z M347 636h21v1H347Z M519 636h21v1H519Z M693 636h21v1H693Z M91 637h39v1H91Z M173 637h21v1H173Z M237 637h41v1H237Z M347 637h21v1H347Z M519 637h21v1H519Z M693 637h21v1H693Z M93 638h39v1H93Z M173 638h21v1H173Z M235 638h41v1H235Z M347 638h21v1H347Z M519 638h21v1H519Z M693 638h21v1H693Z M94 639h39v1H94Z M173 639h21v1H173Z M233 639h41v1H233Z M347 639h21v1H347Z M519 639h21v1H519Z M693 639h21v1H693Z M96 640h39v1H96Z M173 640h21v1H173Z M232 640h41v1H232Z M347 640h21v1H347Z M519 640h21v1H519Z M693 640h21v1H693Z M98 641h39v1H98Z M173 641h21v1H173Z M230 641h41v1H230Z M347 641h21v1H347Z M519 641h21v1H519Z M693 641h21v1H693Z M99 642h39v1H99Z M173 642h21v1H173Z M228 642h41v1H228Z M347 642h21v1H347Z M519 642h21v1H519Z M693 642h21v1H693Z M101 643h39v1H101Z M173 643h21v1H173Z M226 643h42v1H226Z M347 643h21v1H347Z M519 643h21v1H519Z M693 643h21v1H693Z M103 644h39v1H103Z M173 644h21v1H173Z M225 644h41v1H225Z M347 644h21v1H347Z M519 644h21v1H519Z M693 644h21v1H693Z M104 645h40v1H104Z M173 645h21v1H173Z M223 645h41v1H223Z M347 645h21v1H347Z M519 645h21v1H519Z M693 645h21v1H693Z M106 646h39v1H106Z M173 646h21v1H173Z M221 646h42v1H221Z M347 646h21v1H347Z M519 646h21v1H519Z M693 646h21v1H693Z M108 647h39v1H108Z M173 647h21v1H173Z M220 647h41v1H220Z M347 647h21v1H347Z M519 647h21v1H519Z M693 647h21v1H693Z M109 648h40v1H109Z M173 648h21v1H173Z M218 648h42v1H218Z M347 648h21v1H347Z M519 648h21v1H519Z M693 648h21v1H693Z M111 649h39v1H111Z M173 649h21v1H173Z M216 649h42v1H216Z M347 649h21v1H347Z M519 649h21v1H519Z M693 649h21v1H693Z M112 650h40v1H112Z M173 650h21v1H173Z M215 650h41v1H215Z M347 650h21v1H347Z M519 650h21v1H519Z M693 650h21v1H693Z M114 651h40v1H114Z M173 651h21v1H173Z M213 651h42v1H213Z M347 651h21v1H347Z M519 651h21v1H519Z M693 651h21v1H693Z M116 652h39v1H116Z M172 652h22v1H172Z M211 652h42v1H211Z M347 652h21v1H347Z M519 652h21v1H519Z M693 652h21v1H693Z M118 653h39v1H118Z M172 653h23v1H172Z M209 653h42v1H209Z M347 653h21v1H347Z M519 653h21v1H519Z M693 653h21v1H693Z M119 654h40v1H119Z M172 654h23v1H172Z M208 654h42v1H208Z M347 654h21v1H347Z M519 654h21v1H519Z M693 654h21v1H693Z M121 655h39v1H121Z M172 655h24v1H172Z M206 655h42v1H206Z M347 655h21v1H347Z M519 655h21v1H519Z M693 655h21v1H693Z M123 656h39v1H123Z M171 656h25v1H171Z M204 656h42v1H204Z M347 656h21v1H347Z M519 656h21v1H519Z M693 656h21v1H693Z M124 657h41v1H124Z M169 657h29v1H169Z M201 657h44v1H201Z M347 657h21v1H347Z M519 657h21v1H519Z M693 657h21v1H693Z M126 658h117v1H126Z M347 658h21v1H347Z M519 658h21v1H519Z M693 658h21v1H693Z M127 659h114v1H127Z M347 659h21v1H347Z M519 659h21v1H519Z M693 659h21v1H693Z M129 660h111v1H129Z M347 660h21v1H347Z M519 660h21v1H519Z M693 660h21v1H693Z M131 661h107v1H131Z M347 661h21v1H347Z M519 661h21v1H519Z M693 661h21v1H693Z M132 662h104v1H132Z M347 662h21v1H347Z M519 662h21v1H519Z M693 662h21v1H693Z M134 663h101v1H134Z M347 663h21v1H347Z M519 663h21v1H519Z M693 663h21v1H693Z M136 664h97v1H136Z M347 664h21v1H347Z M519 664h21v1H519Z M693 664h21v1H693Z M137 665h94v1H137Z M347 665h21v1H347Z M519 665h21v1H519Z M693 665h21v1H693Z M139 666h91v1H139Z M347 666h21v1H347Z M519 666h21v1H519Z M693 666h21v1H693Z M141 667h87v1H141Z M347 667h21v1H347Z M518 667h22v1H518Z M693 667h21v1H693Z M142 668h85v1H142Z M347 668h21v1H347Z M518 668h22v1H518Z M693 668h21v1H693Z M144 669h81v1H144Z M347 669h21v1H347Z M518 669h22v1H518Z M693 669h21v1H693Z M146 670h77v1H146Z M347 670h21v1H347Z M518 670h22v1H518Z M693 670h21v1H693Z M147 671h75v1H147Z M347 671h21v1H347Z M517 671h23v1H517Z M693 671h21v1H693Z M149 672h71v1H149Z M347 672h21v1H347Z M517 672h23v1H517Z M693 672h21v1H693Z M151 673h67v1H151Z M347 673h21v1H347Z M516 673h24v1H516Z M693 673h21v1H693Z M152 674h65v1H152Z M347 674h21v1H347Z M516 674h24v1H516Z M693 674h21v1H693Z M154 675h61v1H154Z M347 675h21v1H347Z M515 675h25v1H515Z M693 675h21v1H693Z M155 676h59v1H155Z M347 676h21v1H347Z M515 676h25v1H515Z M693 676h21v1H693Z M157 677h56v1H157Z M347 677h21v1H347Z M514 677h26v1H514Z M693 677h21v1H693Z M159 678h53v1H159Z M347 678h21v1H347Z M513 678h27v1H513Z M693 678h21v1H693Z M160 679h51v1H160Z M347 679h21v1H347Z M512 679h28v1H512Z M693 679h21v1H693Z M162 680h48v1H162Z M347 680h21v1H347Z M511 680h29v1H511Z M693 680h21v1H693Z M164 681h46v1H164Z M347 681h21v1H347Z M510 681h30v1H510Z M693 681h21v1H693Z M165 682h45v1H165Z M347 682h21v1H347Z M508 682h32v1H508Z M693 682h21v1H693Z M167 683h43v1H167Z M347 683h21v1H347Z M507 683h33v1H507Z M693 683h21v1H693Z M169 684h42v1H169Z M347 684h21v1H347Z M505 684h35v1H505Z M693 684h21v1H693Z M170 685h41v1H170Z M347 685h21v1H347Z M504 685h36v1H504Z M693 685h21v1H693Z M172 686h40v1H172Z M347 686h21v1H347Z M502 686h38v1H502Z M693 686h21v1H693Z M174 687h39v1H174Z M347 687h21v1H347Z M500 687h40v1H500Z M693 687h21v1H693Z M175 688h39v1H175Z M347 688h21v1H347Z M499 688h41v1H499Z M693 688h21v1H693Z M177 689h39v1H177Z M347 689h21v1H347Z M497 689h43v1H497Z M693 689h21v1H693Z M179 690h38v1H179Z M347 690h21v1H347Z M496 690h44v1H496Z M693 690h21v1H693Z M180 691h39v1H180Z M347 691h21v1H347Z M494 691h46v1H494Z M693 691h21v1H693Z M182 692h38v1H182Z M347 692h21v1H347Z M492 692h48v1H492Z M693 692h21v1H693Z M184 693h38v1H184Z M347 693h21v1H347Z M491 693h49v1H491Z M693 693h21v1H693Z M185 694h39v1H185Z M347 694h21v1H347Z M489 694h51v1H489Z M693 694h21v1H693Z M187 695h38v1H187Z M347 695h21v1H347Z M487 695h53v1H487Z M693 695h21v1H693Z M189 696h38v1H189Z M347 696h21v1H347Z M486 696h54v1H486Z M693 696h21v1H693Z M190 697h39v1H190Z M347 697h21v1H347Z M484 697h56v1H484Z M693 697h21v1H693Z M192 698h38v1H192Z M347 698h21v1H347Z M482 698h58v1H482Z M693 698h21v1H693Z M193 699h39v1H193Z M347 699h21v1H347Z M481 699h59v1H481Z M693 699h21v1H693Z M195 700h39v1H195Z M347 700h21v1H347Z M479 700h61v1H479Z M693 700h21v1H693Z M197 701h39v1H197Z M347 701h21v1H347Z M478 701h62v1H478Z M693 701h21v1H693Z M198 702h39v1H198Z M347 702h21v1H347Z M476 702h64v1H476Z M693 702h21v1H693Z M200 703h39v1H200Z M347 703h21v1H347Z M474 703h66v1H474Z M693 703h21v1H693Z M202 704h38v1H202Z M347 704h21v1H347Z M473 704h67v1H473Z M693 704h21v1H693Z M203 705h39v1H203Z M347 705h21v1H347Z M471 705h69v1H471Z M693 705h21v1H693Z M205 706h39v1H205Z M347 706h21v1H347Z M469 706h41v1H469Z M516 706h24v1H516Z M693 706h21v1H693Z M207 707h39v1H207Z M347 707h21v1H347Z M468 707h40v1H468Z M517 707h23v1H517Z M693 707h21v1H693Z M208 708h39v1H208Z M347 708h21v1H347Z M466 708h40v1H466Z M518 708h22v1H518Z M693 708h21v1H693Z M210 709h39v1H210Z M347 709h21v1H347Z M464 709h40v1H464Z M518 709h22v1H518Z M693 709h21v1H693Z M212 710h39v1H212Z M347 710h21v1H347Z M463 710h39v1H463Z M518 710h22v1H518Z M693 710h21v1H693Z M213 711h39v1H213Z M347 711h21v1H347Z M461 711h40v1H461Z M519 711h21v1H519Z M693 711h21v1H693Z M215 712h39v1H215Z M347 712h21v1H347Z M459 712h40v1H459Z M519 712h21v1H519Z M693 712h21v1H693Z M217 713h38v1H217Z M347 713h21v1H347Z M458 713h40v1H458Z M519 713h21v1H519Z M693 713h21v1H693Z M218 714h39v1H218Z M347 714h21v1H347Z M456 714h40v1H456Z M519 714h21v1H519Z M693 714h21v1H693Z M220 715h39v1H220Z M347 715h21v1H347Z M454 715h40v1H454Z M519 715h21v1H519Z M693 715h21v1H693Z M222 716h39v1H222Z M347 716h21v1H347Z M453 716h40v1H453Z M519 716h21v1H519Z M693 716h21v1H693Z M223 717h39v1H223Z M347 717h21v1H347Z M451 717h40v1H451Z M519 717h21v1H519Z M693 717h21v1H693Z M225 718h39v1H225Z M347 718h21v1H347Z M450 718h39v1H450Z M519 718h21v1H519Z M693 718h21v1H693Z M226 719h40v1H226Z M347 719h21v1H347Z M448 719h40v1H448Z M519 719h21v1H519Z M693 719h21v1H693Z M228 720h39v1H228Z M347 720h21v1H347Z M446 720h40v1H446Z M519 720h21v1H519Z M693 720h21v1H693Z M230 721h39v1H230Z M347 721h21v1H347Z M444 721h41v1H444Z M519 721h21v1H519Z M693 721h21v1H693Z M231 722h40v1H231Z M347 722h21v1H347Z M443 722h40v1H443Z M519 722h21v1H519Z M693 722h21v1H693Z M233 723h39v1H233Z M347 723h21v1H347Z M441 723h40v1H441Z M519 723h21v1H519Z M693 723h21v1H693Z M235 724h39v1H235Z M347 724h21v1H347Z M439 724h41v1H439Z M519 724h21v1H519Z M693 724h21v1H693Z M236 725h40v1H236Z M347 725h21v1H347Z M438 725h40v1H438Z M519 725h21v1H519Z M693 725h21v1H693Z M238 726h39v1H238Z M347 726h21v1H347Z M436 726h40v1H436Z M519 726h21v1H519Z M693 726h21v1H693Z M240 727h39v1H240Z M347 727h21v1H347Z M435 727h40v1H435Z M519 727h21v1H519Z M693 727h21v1H693Z M241 728h40v1H241Z M347 728h21v1H347Z M433 728h40v1H433Z M519 728h21v1H519Z M693 728h21v1H693Z M243 729h39v1H243Z M347 729h21v1H347Z M431 729h40v1H431Z M519 729h21v1H519Z M693 729h21v1H693Z M245 730h39v1H245Z M347 730h21v1H347Z M430 730h40v1H430Z M519 730h21v1H519Z M693 730h21v1H693Z M246 731h40v1H246Z M347 731h21v1H347Z M428 731h40v1H428Z M519 731h21v1H519Z M693 731h21v1H693Z M248 732h39v1H248Z M347 732h21v1H347Z M426 732h41v1H426Z M519 732h21v1H519Z M693 732h21v1H693Z M249 733h40v1H249Z M347 733h21v1H347Z M425 733h40v1H425Z M519 733h21v1H519Z M693 733h21v1H693Z M251 734h40v1H251Z M347 734h21v1H347Z M423 734h40v1H423Z M519 734h21v1H519Z M693 734h21v1H693Z M253 735h40v1H253Z M347 735h21v1H347Z M421 735h41v1H421Z M519 735h21v1H519Z M693 735h21v1H693Z M254 736h40v1H254Z M347 736h21v1H347Z M420 736h40v1H420Z M519 736h21v1H519Z M693 736h21v1H693Z M256 737h40v1H256Z M347 737h21v1H347Z M418 737h40v1H418Z M519 737h21v1H519Z M693 737h21v1H693Z M258 738h39v1H258Z M347 738h21v1H347Z M416 738h41v1H416Z M519 738h21v1H519Z M693 738h21v1H693Z M259 739h40v1H259Z M347 739h21v1H347Z M414 739h41v1H414Z M519 739h21v1H519Z M693 739h21v1H693Z M261 740h40v1H261Z M347 740h21v1H347Z M413 740h40v1H413Z M519 740h21v1H519Z M693 740h21v1H693Z M263 741h40v1H263Z M347 741h21v1H347Z M411 741h41v1H411Z M519 741h21v1H519Z M693 741h21v1H693Z M264 742h40v1H264Z M347 742h21v1H347Z M410 742h40v1H410Z M519 742h21v1H519Z M693 742h21v1H693Z M266 743h40v1H266Z M347 743h21v1H347Z M408 743h41v1H408Z M519 743h21v1H519Z M693 743h21v1H693Z M268 744h39v1H268Z M347 744h21v1H347Z M406 744h41v1H406Z M519 744h21v1H519Z M693 744h21v1H693Z M269 745h40v1H269Z M347 745h21v1H347Z M404 745h41v1H404Z M519 745h21v1H519Z M693 745h21v1H693Z M271 746h40v1H271Z M347 746h21v1H347Z M403 746h41v1H403Z M519 746h21v1H519Z M694 746h20v1H694Z M273 747h40v1H273Z M347 747h21v1H347Z M401 747h41v1H401Z M519 747h21v1H519Z M694 747h20v1H694Z M274 748h40v1H274Z M347 748h21v1H347Z M399 748h41v1H399Z M519 748h21v1H519Z M694 748h20v1H694Z M276 749h40v1H276Z M347 749h21v1H347Z M398 749h41v1H398Z M519 749h21v1H519Z M694 749h20v1H694Z M278 750h40v1H278Z M347 750h21v1H347Z M396 750h41v1H396Z M519 750h21v1H519Z M694 750h20v1H694Z M279 751h40v1H279Z M347 751h21v1H347Z M395 751h40v1H395Z M519 751h21v1H519Z M694 751h20v1H694Z M281 752h40v1H281Z M347 752h21v1H347Z M393 752h41v1H393Z M519 752h21v1H519Z M694 752h20v1H694Z M282 753h41v1H282Z M347 753h21v1H347Z M391 753h41v1H391Z M519 753h21v1H519Z M694 753h20v1H694Z M284 754h40v1H284Z M346 754h22v1H346Z M389 754h42v1H389Z M519 754h21v1H519Z M694 754h20v1H694Z M286 755h40v1H286Z M346 755h22v1H346Z M388 755h41v1H388Z M519 755h21v1H519Z M694 755h20v1H694Z M287 756h41v1H287Z M346 756h22v1H346Z M386 756h41v1H386Z M519 756h21v1H519Z M694 756h20v1H694Z M289 757h40v1H289Z M346 757h22v1H346Z M384 757h42v1H384Z M519 757h21v1H519Z M694 757h20v1H694Z M291 758h40v1H291Z M346 758h23v1H346Z M383 758h41v1H383Z M519 758h21v1H519Z M694 758h20v1H694Z M292 759h41v1H292Z M345 759h24v1H345Z M381 759h41v1H381Z M519 759h21v1H519Z M694 759h20v1H694Z M294 760h40v1H294Z M345 760h24v1H345Z M379 760h42v1H379Z M519 760h21v1H519Z M694 760h20v1H694Z M296 761h41v1H296Z M344 761h26v1H344Z M377 761h42v1H377Z M519 761h21v1H519Z M694 761h20v1H694Z M297 762h43v1H297Z M342 762h29v1H342Z M374 762h43v1H374Z M519 762h21v1H519Z M694 762h20v1H694Z M299 763h117v1H299Z M519 763h21v1H519Z M694 763h20v1H694Z M301 764h113v1H301Z M519 764h21v1H519Z M694 764h20v1H694Z M302 765h111v1H302Z M519 765h21v1H519Z M694 765h20v1H694Z M304 766h107v1H304Z M519 766h21v1H519Z M694 766h20v1H694Z M306 767h103v1H306Z M519 767h21v1H519Z M694 767h20v1H694Z M307 768h101v1H307Z M519 768h21v1H519Z M694 768h20v1H694Z M309 769h97v1H309Z M519 769h21v1H519Z M694 769h20v1H694Z M311 770h93v1H311Z M519 770h21v1H519Z M693 770h21v1H693Z M312 771h91v1H312Z M519 771h21v1H519Z M693 771h21v1H693Z M314 772h87v1H314Z M519 772h21v1H519Z M693 772h21v1H693Z M316 773h84v1H316Z M519 773h21v1H519Z M693 773h21v1H693Z M317 774h81v1H317Z M519 774h21v1H519Z M693 774h21v1H693Z M319 775h77v1H319Z M519 775h21v1H519Z M692 775h22v1H692Z M320 776h75v1H320Z M519 776h21v1H519Z M692 776h22v1H692Z M322 777h71v1H322Z M519 777h21v1H519Z M691 777h23v1H691Z M324 778h68v1H324Z M519 778h21v1H519Z M691 778h23v1H691Z M325 779h65v1H325Z M519 779h21v1H519Z M690 779h24v1H690Z M327 780h61v1H327Z M519 780h21v1H519Z M690 780h24v1H690Z M329 781h58v1H329Z M519 781h21v1H519Z M689 781h25v1H689Z M330 782h56v1H330Z M519 782h21v1H519Z M688 782h26v1H688Z M332 783h53v1H332Z M519 783h21v1H519Z M687 783h27v1H687Z M334 784h51v1H334Z M519 784h21v1H519Z M686 784h28v1H686Z M335 785h49v1H335Z M519 785h21v1H519Z M685 785h28v1H685Z M337 786h47v1H337Z M519 786h21v1H519Z M684 786h29v1H684Z M339 787h45v1H339Z M519 787h21v1H519Z M683 787h30v1H683Z M340 788h44v1H340Z M519 788h21v1H519Z M682 788h30v1H682Z M342 789h42v1H342Z M519 789h21v1H519Z M680 789h32v1H680Z M343 790h42v1H343Z M519 790h21v1H519Z M678 790h33v1H678Z M345 791h41v1H345Z M519 791h21v1H519Z M677 791h34v1H677Z M347 792h40v1H347Z M519 792h21v1H519Z M675 792h35v1H675Z M349 793h39v1H349Z M519 793h21v1H519Z M673 793h36v1H673Z M350 794h39v1H350Z M519 794h21v1H519Z M672 794h37v1H672Z M352 795h39v1H352Z M519 795h21v1H519Z M670 795h37v1H670Z M353 796h39v1H353Z M519 796h21v1H519Z M668 796h38v1H668Z M355 797h39v1H355Z M519 797h21v1H519Z M667 797h38v1H667Z M357 798h39v1H357Z M519 798h21v1H519Z M665 798h39v1H665Z M358 799h40v1H358Z M519 799h21v1H519Z M663 799h39v1H663Z M360 800h39v1H360Z M519 800h21v1H519Z M662 800h38v1H662Z M362 801h39v1H362Z M519 801h21v1H519Z M660 801h39v1H660Z M363 802h39v1H363Z M519 802h21v1H519Z M658 802h39v1H658Z M365 803h39v1H365Z M519 803h21v1H519Z M656 803h39v1H656Z M366 804h40v1H366Z M519 804h21v1H519Z M655 804h39v1H655Z M368 805h39v1H368Z M519 805h21v1H519Z M653 805h39v1H653Z M370 806h39v1H370Z M519 806h21v1H519Z M651 806h39v1H651Z M372 807h39v1H372Z M519 807h21v1H519Z M650 807h39v1H650Z M373 808h39v1H373Z M519 808h21v1H519Z M648 808h39v1H648Z M375 809h39v1H375Z M519 809h21v1H519Z M646 809h39v1H646Z M377 810h39v1H377Z M519 810h21v1H519Z M645 810h39v1H645Z M378 811h39v1H378Z M519 811h21v1H519Z M643 811h39v1H643Z M380 812h39v1H380Z M519 812h21v1H519Z M641 812h39v1H641Z M381 813h40v1H381Z M519 813h21v1H519Z M640 813h39v1H640Z M383 814h40v1H383Z M519 814h21v1H519Z M638 814h39v1H638Z M385 815h39v1H385Z M519 815h21v1H519Z M636 815h39v1H636Z M386 816h40v1H386Z M519 816h21v1H519Z M635 816h39v1H635Z M388 817h39v1H388Z M519 817h21v1H519Z M633 817h39v1H633Z M389 818h40v1H389Z M519 818h21v1H519Z M631 818h39v1H631Z M391 819h40v1H391Z M519 819h21v1H519Z M630 819h39v1H630Z M393 820h39v1H393Z M519 820h21v1H519Z M628 820h39v1H628Z M395 821h39v1H395Z M519 821h21v1H519Z M626 821h39v1H626Z M396 822h40v1H396Z M519 822h21v1H519Z M624 822h40v1H624Z M398 823h39v1H398Z M519 823h21v1H519Z M623 823h39v1H623Z M400 824h39v1H400Z M519 824h21v1H519Z M621 824h39v1H621Z M401 825h40v1H401Z M519 825h21v1H519Z M619 825h40v1H619Z M403 826h39v1H403Z M519 826h21v1H519Z M618 826h39v1H618Z M405 827h39v1H405Z M519 827h21v1H519Z M616 827h39v1H616Z M406 828h40v1H406Z M519 828h21v1H519Z M614 828h40v1H614Z M408 829h39v1H408Z M519 829h21v1H519Z M613 829h39v1H613Z M409 830h40v1H409Z M519 830h21v1H519Z M611 830h39v1H611Z M411 831h40v1H411Z M519 831h21v1H519Z M609 831h40v1H609Z M413 832h39v1H413Z M519 832h21v1H519Z M608 832h39v1H608Z M414 833h40v1H414Z M519 833h21v1H519Z M606 833h40v1H606Z M416 834h40v1H416Z M519 834h21v1H519Z M604 834h40v1H604Z M418 835h39v1H418Z M519 835h21v1H519Z M603 835h39v1H603Z M419 836h40v1H419Z M519 836h21v1H519Z M601 836h39v1H601Z M421 837h40v1H421Z M519 837h21v1H519Z M599 837h40v1H599Z M423 838h40v1H423Z M519 838h21v1H519Z M598 838h39v1H598Z M424 839h40v1H424Z M519 839h21v1H519Z M596 839h40v1H596Z M426 840h40v1H426Z M519 840h21v1H519Z M594 840h40v1H594Z M427 841h41v1H427Z M519 841h21v1H519Z M592 841h40v1H592Z M429 842h40v1H429Z M519 842h21v1H519Z M591 842h40v1H591Z M431 843h40v1H431Z M519 843h21v1H519Z M589 843h40v1H589Z M432 844h41v1H432Z M519 844h21v1H519Z M588 844h39v1H588Z M434 845h40v1H434Z M519 845h21v1H519Z M586 845h40v1H586Z M436 846h40v1H436Z M519 846h21v1H519Z M584 846h40v1H584Z M437 847h41v1H437Z M519 847h21v1H519Z M583 847h39v1H583Z M439 848h40v1H439Z M519 848h21v1H519Z M581 848h40v1H581Z M441 849h40v1H441Z M519 849h21v1H519Z M579 849h40v1H579Z M442 850h41v1H442Z M519 850h21v1H519Z M577 850h40v1H577Z M444 851h40v1H444Z M519 851h21v1H519Z M576 851h40v1H576Z M446 852h40v1H446Z M519 852h21v1H519Z M574 852h40v1H574Z M447 853h40v1H447Z M519 853h21v1H519Z M573 853h39v1H573Z M449 854h40v1H449Z M519 854h21v1H519Z M571 854h40v1H571Z M451 855h40v1H451Z M519 855h21v1H519Z M569 855h40v1H569Z M452 856h41v1H452Z M519 856h21v1H519Z M567 856h41v1H567Z M454 857h40v1H454Z M519 857h21v1H519Z M566 857h40v1H566Z M456 858h40v1H456Z M519 858h21v1H519Z M564 858h40v1H564Z M457 859h41v1H457Z M519 859h21v1H519Z M562 859h40v1H562Z M459 860h40v1H459Z M519 860h22v1H519Z M561 860h40v1H561Z M461 861h40v1H461Z M519 861h22v1H519Z M559 861h40v1H559Z M462 862h41v1H462Z M518 862h23v1H518Z M557 862h40v1H557Z M464 863h40v1H464Z M518 863h23v1H518Z M556 863h40v1H556Z M465 864h41v1H465Z M518 864h24v1H518Z M554 864h40v1H554Z M467 865h41v1H467Z M517 865h25v1H517Z M552 865h41v1H552Z M469 866h41v1H469Z M516 866h27v1H516Z M550 866h41v1H550Z M470 867h119v1H470Z M472 868h116v1H472Z M474 869h112v1H474Z M476 870h108v1H476Z M477 871h106v1H477Z M479 872h102v1H479Z M480 873h99v1H480Z M482 874h96v1H482Z M484 875h92v1H484Z M485 876h90v1H485Z M487 877h86v1H487Z M489 878h82v1H489Z M490 879h79v1H490Z M492 880h76v1H492Z M493 881h73v1H493Z M495 882h70v1H495Z M497 883h66v1H497Z M499 884h62v1H499Z M500 885h60v1H500Z M502 886h56v1H502Z M504 887h52v1H504Z M505 888h49v1H505Z M507 889h46v1H507Z M508 890h43v1H508Z M510 891h40v1H510Z M512 892h36v1H512Z M513 893h33v1H513Z M515 894h30v1H515Z M516 895h27v1H516Z M518 896h23v1H518Z M520 897h20v1H520Z M522 898h16v1H522Z M524 899h11v1H524Z" fill="white"/>
</svg>
